<svg width="18" height="14" viewBox="0 0 18 14" fill="none" xmlns="http://www.w3.org/2000/svg">
<path d="M17 8H5C4.44767 8 4 7.55233 4 7C4 6.44767 4.44767 6 5 6H17C17.5523 6 18 6.44767 18 7C18 7.55233 17.5523 8 17 8Z" fill="black"></path>
<path d="M17 14H1C0.447666 14 0 13.5523 0 13C0 12.4477 0.447666 12 1 12H17C17.5523 12 18 12.4477 18 13C18 13.5523 17.5523 14 17 14Z" fill="black"></path>
<path d="M1 0H17C17.5523 0 18 0.447667 18 1C18 1.55233 17.5523 2 17 2H1C0.447666 2 0 1.55233 0 1C0 0.447667 0.447666 0 1 0Z" fill="black"></path>
</svg>