<svg width="59" height="157" viewBox="0 0 59 157" fill="none" xmlns="http://www.w3.org/2000/svg">
<path d="M55.9702 1.97964C55.9702 2.74078 56.5873 3.3578 57.3484 3.3578C58.1095 3.3578 58.7266 2.74078 58.7266 1.97964C58.7266 1.2185 58.1095 0.601471 57.3484 0.601471C56.5873 0.601471 55.9702 1.2185 55.9702 1.97964Z" fill="#E3E3E3"/>
<path d="M55.9693 113.242C55.9693 114.003 56.5863 114.62 57.3474 114.62C58.1086 114.62 58.7256 114.003 58.7256 113.242C58.7256 112.481 58.1086 111.864 57.3474 111.864C56.5863 111.864 55.9693 112.481 55.9693 113.242Z" fill="#E3E3E3"/>
<path d="M55.9693 57.6105C55.9693 58.3716 56.5863 58.9886 57.3474 58.9886C58.1086 58.9886 58.7256 58.3716 58.7256 57.6105C58.7256 56.8493 58.1086 56.2323 57.3474 56.2323C56.5863 56.2323 55.9693 56.8493 55.9693 57.6105Z" fill="#E3E3E3"/>
<path d="M55.9155 43.7042C55.9155 44.4653 56.5326 45.0823 57.2937 45.0823C58.0548 45.0823 58.6719 44.4653 58.6719 43.7042C58.6719 42.943 58.0548 42.326 57.2937 42.326C56.5326 42.326 55.9155 42.943 55.9155 43.7042Z" fill="#E3E3E3"/>
<path d="M55.9155 154.966C55.9155 155.727 56.5326 156.344 57.2937 156.344C58.0548 156.344 58.6719 155.727 58.6719 154.966C58.6719 154.205 58.0548 153.588 57.2937 153.588C56.5326 153.588 55.9155 154.205 55.9155 154.966Z" fill="#E3E3E3"/>
<path d="M55.9155 99.3354C55.9155 100.097 56.5326 100.714 57.2937 100.714C58.0548 100.714 58.6719 100.097 58.6719 99.3354C58.6719 98.5742 58.0548 97.9572 57.2937 97.9572C56.5326 97.9572 55.9155 98.5742 55.9155 99.3354Z" fill="#E3E3E3"/>
<path d="M55.9693 29.7938C55.9693 30.5549 56.5863 31.1719 57.3474 31.1719C58.1086 31.1719 58.7256 30.5549 58.7256 29.7938C58.7256 29.0326 58.1086 28.4156 57.3474 28.4156C56.5863 28.4156 55.9693 29.0326 55.9693 29.7938Z" fill="#E3E3E3"/>
<path d="M55.9693 141.055C55.9693 141.817 56.5863 142.434 57.3474 142.434C58.1086 142.434 58.7256 141.817 58.7256 141.055C58.7256 140.294 58.1086 139.677 57.3474 139.677C56.5863 139.677 55.9693 140.294 55.9693 141.055Z" fill="#E3E3E3"/>
<path d="M55.9693 85.4246C55.9693 86.1857 56.5863 86.8027 57.3474 86.8027C58.1086 86.8027 58.7256 86.1857 58.7256 85.4246C58.7256 84.6634 58.1086 84.0464 57.3474 84.0464C56.5863 84.0464 55.9693 84.6634 55.9693 85.4246Z" fill="#E3E3E3"/>
<path d="M55.9165 15.8874C55.9165 16.6486 56.5335 17.2656 57.2947 17.2656C58.0558 17.2656 58.6729 16.6486 58.6729 15.8874C58.6729 15.1263 58.0558 14.5093 57.2947 14.5093C56.5335 14.5093 55.9165 15.1263 55.9165 15.8874Z" fill="#E3E3E3"/>
<path d="M55.9165 127.149C55.9165 127.911 56.5335 128.528 57.2947 128.528C58.0558 128.528 58.6729 127.911 58.6729 127.149C58.6729 126.388 58.0558 125.771 57.2947 125.771C56.5335 125.771 55.9165 126.388 55.9165 127.149Z" fill="#E3E3E3"/>
<path d="M55.9165 71.5183C55.9165 72.2794 56.5335 72.8964 57.2947 72.8964C58.0558 72.8964 58.6729 72.2794 58.6729 71.5183C58.6729 70.7571 58.0558 70.1401 57.2947 70.1401C56.5335 70.1401 55.9165 70.7571 55.9165 71.5183Z" fill="#E3E3E3"/>
<path d="M55.9712 57.609C55.9712 58.3701 56.5882 58.9872 57.3494 58.9872C58.1105 58.9872 58.7275 58.3701 58.7275 57.609C58.7275 56.8478 58.1105 56.2308 57.3494 56.2308C56.5882 56.2308 55.9712 56.8478 55.9712 57.609Z" fill="#E3E3E3"/>
<path d="M55.9712 113.24C55.9712 114.001 56.5882 114.618 57.3494 114.618C58.1105 114.618 58.7275 114.001 58.7275 113.24C58.7275 112.479 58.1105 111.862 57.3494 111.862C56.5882 111.862 55.9712 112.479 55.9712 113.24Z" fill="#E3E3E3"/>
<path d="M28.2066 1.97964C28.2066 2.74077 28.8236 3.3578 29.5847 3.3578C30.3459 3.3578 30.9629 2.74077 30.9629 1.97964C30.9629 1.2185 30.3459 0.601471 29.5847 0.601471C28.8236 0.601471 28.2066 1.2185 28.2066 1.97964Z" fill="#E3E3E3"/>
<path d="M28.2066 113.242C28.2066 114.003 28.8236 114.62 29.5847 114.62C30.3459 114.62 30.9629 114.003 30.9629 113.242C30.9629 112.481 30.3459 111.864 29.5847 111.864C28.8236 111.864 28.2066 112.481 28.2066 113.242Z" fill="#E3E3E3"/>
<path d="M28.2066 57.6105C28.2066 58.3716 28.8236 58.9886 29.5847 58.9886C30.3459 58.9886 30.9629 58.3716 30.9629 57.6105C30.9629 56.8493 30.3459 56.2323 29.5847 56.2323C28.8236 56.2323 28.2066 56.8493 28.2066 57.6105Z" fill="#E3E3E3"/>
<path d="M28.1528 43.7042C28.1528 44.4653 28.7699 45.0823 29.531 45.0823C30.2922 45.0823 30.9092 44.4653 30.9092 43.7042C30.9092 42.943 30.2922 42.326 29.531 42.326C28.7699 42.326 28.1528 42.943 28.1528 43.7042Z" fill="#E3E3E3"/>
<path d="M28.1528 154.966C28.1528 155.727 28.7699 156.344 29.531 156.344C30.2922 156.344 30.9092 155.727 30.9092 154.966C30.9092 154.205 30.2922 153.588 29.531 153.588C28.7699 153.588 28.1528 154.205 28.1528 154.966Z" fill="#E3E3E3"/>
<path d="M28.1528 99.3354C28.1528 100.097 28.7699 100.714 29.531 100.714C30.2922 100.714 30.9092 100.097 30.9092 99.3354C30.9092 98.5742 30.2922 97.9572 29.531 97.9572C28.7699 97.9572 28.1528 98.5742 28.1528 99.3354Z" fill="#E3E3E3"/>
<path d="M28.1538 15.8874C28.1538 16.6486 28.7709 17.2656 29.532 17.2656C30.2931 17.2656 30.9102 16.6486 30.9102 15.8874C30.9102 15.1263 30.2931 14.5093 29.532 14.5093C28.7709 14.5093 28.1538 15.1263 28.1538 15.8874Z" fill="#E3E3E3"/>
<path d="M28.1538 127.149C28.1538 127.911 28.7709 128.528 29.532 128.528C30.2931 128.528 30.9102 127.911 30.9102 127.149C30.9102 126.388 30.2931 125.771 29.532 125.771C28.7709 125.771 28.1538 126.388 28.1538 127.149Z" fill="#E3E3E3"/>
<path d="M28.1538 71.5183C28.1538 72.2794 28.7709 72.8964 29.532 72.8964C30.2931 72.8964 30.9102 72.2794 30.9102 71.5183C30.9102 70.7571 30.2931 70.1401 29.532 70.1401C28.7709 70.1401 28.1538 70.7571 28.1538 71.5183Z" fill="#E3E3E3"/>
<path d="M28.2085 57.609C28.2085 58.3701 28.8255 58.9872 29.5867 58.9872C30.3478 58.9872 30.9648 58.3701 30.9648 57.609C30.9648 56.8478 30.3478 56.2308 29.5867 56.2308C28.8255 56.2308 28.2085 56.8478 28.2085 57.609Z" fill="#E3E3E3"/>
<path d="M28.2085 113.24C28.2085 114.001 28.8255 114.618 29.5867 114.618C30.3478 114.618 30.9648 114.001 30.9648 113.24C30.9648 112.479 30.3478 111.862 29.5867 111.862C28.8255 111.862 28.2085 112.479 28.2085 113.24Z" fill="#E3E3E3"/>
<path d="M28.1538 29.7952C28.1538 30.5564 28.7709 31.1734 29.532 31.1734C30.2931 31.1734 30.9102 30.5564 30.9102 29.7952C30.9102 29.0341 30.2931 28.4171 29.532 28.4171C28.7709 28.4171 28.1538 29.0341 28.1538 29.7952Z" fill="#E3E3E3"/>
<path d="M28.1538 141.057C28.1538 141.818 28.7709 142.435 29.532 142.435C30.2931 142.435 30.9102 141.818 30.9102 141.057C30.9102 140.296 30.2931 139.679 29.532 139.679C28.7709 139.679 28.1538 140.296 28.1538 141.057Z" fill="#E3E3E3"/>
<path d="M28.1538 85.4261C28.1538 86.1872 28.7709 86.8043 29.532 86.8043C30.2931 86.8043 30.9102 86.1872 30.9102 85.4261C30.9102 84.665 30.2931 84.0479 29.532 84.0479C28.7709 84.0479 28.1538 84.665 28.1538 85.4261Z" fill="#E3E3E3"/>
<path d="M0.390154 1.97963C0.390154 2.74077 1.00718 3.3578 1.76832 3.3578C2.52946 3.3578 3.14648 2.74077 3.14648 1.97963C3.14648 1.2185 2.52946 0.601471 1.76832 0.601471C1.00718 0.601471 0.390154 1.2185 0.390154 1.97963Z" fill="#E3E3E3"/>
<path d="M0.390154 113.242C0.390154 114.003 1.00718 114.62 1.76832 114.62C2.52946 114.62 3.14648 114.003 3.14648 113.242C3.14648 112.481 2.52946 111.864 1.76832 111.864C1.00718 111.864 0.390154 112.481 0.390154 113.242Z" fill="#E3E3E3"/>
<path d="M0.390154 57.6105C0.390154 58.3716 1.00718 58.9886 1.76832 58.9886C2.52946 58.9886 3.14648 58.3716 3.14648 57.6105C3.14648 56.8493 2.52946 56.2323 1.76832 56.2323C1.00718 56.2323 0.390154 56.8493 0.390154 57.6105Z" fill="#E3E3E3"/>
<path d="M0.33742 43.7042C0.33742 44.4653 0.954446 45.0823 1.71559 45.0823C2.47673 45.0823 3.09375 44.4653 3.09375 43.7042C3.09375 42.943 2.47673 42.326 1.71559 42.326C0.954447 42.326 0.33742 42.943 0.33742 43.7042Z" fill="#E3E3E3"/>
<path d="M0.33742 154.966C0.33742 155.727 0.954446 156.344 1.71559 156.344C2.47673 156.344 3.09375 155.727 3.09375 154.966C3.09375 154.205 2.47673 153.588 1.71559 153.588C0.954447 153.588 0.33742 154.205 0.33742 154.966Z" fill="#E3E3E3"/>
<path d="M0.33742 99.3354C0.33742 100.097 0.954446 100.714 1.71559 100.714C2.47673 100.714 3.09375 100.097 3.09375 99.3354C3.09375 98.5742 2.47673 97.9572 1.71559 97.9572C0.954447 97.9572 0.33742 98.5742 0.33742 99.3354Z" fill="#E3E3E3"/>
<path d="M0.390154 29.7938C0.390154 30.5549 1.00718 31.1719 1.76832 31.1719C2.52946 31.1719 3.14648 30.5549 3.14648 29.7938C3.14648 29.0326 2.52946 28.4156 1.76832 28.4156C1.00718 28.4156 0.390154 29.0326 0.390154 29.7938Z" fill="#E3E3E3"/>
<path d="M0.390154 141.055C0.390154 141.817 1.00718 142.434 1.76832 142.434C2.52946 142.434 3.14648 141.817 3.14648 141.055C3.14648 140.294 2.52946 139.677 1.76832 139.677C1.00718 139.677 0.390154 140.294 0.390154 141.055Z" fill="#E3E3E3"/>
<path d="M0.390154 85.4246C0.390154 86.1857 1.00718 86.8027 1.76832 86.8027C2.52946 86.8027 3.14648 86.1857 3.14648 85.4246C3.14648 84.6634 2.52946 84.0464 1.76832 84.0464C1.00718 84.0464 0.390154 84.6634 0.390154 85.4246Z" fill="#E3E3E3"/>
<path d="M0.338396 15.8874C0.338396 16.6486 0.955423 17.2656 1.71656 17.2656C2.4777 17.2656 3.09473 16.6486 3.09473 15.8874C3.09473 15.1263 2.4777 14.5093 1.71656 14.5093C0.955423 14.5093 0.338396 15.1263 0.338396 15.8874Z" fill="#E3E3E3"/>
<path d="M0.338396 127.149C0.338396 127.911 0.955423 128.528 1.71656 128.528C2.4777 128.528 3.09473 127.911 3.09473 127.149C3.09473 126.388 2.4777 125.771 1.71656 125.771C0.955423 125.771 0.338396 126.388 0.338396 127.149Z" fill="#E3E3E3"/>
<path d="M0.338396 71.5183C0.338396 72.2794 0.955423 72.8964 1.71656 72.8964C2.4777 72.8964 3.09473 72.2794 3.09473 71.5183C3.09473 70.7571 2.4777 70.1401 1.71656 70.1401C0.955423 70.1401 0.338396 70.7571 0.338396 71.5183Z" fill="#E3E3E3"/>
<path d="M0.391131 57.609C0.391131 58.3701 1.00816 58.9871 1.7693 58.9871C2.53043 58.9871 3.14746 58.3701 3.14746 57.609C3.14746 56.8478 2.53044 56.2308 1.7693 56.2308C1.00816 56.2308 0.391131 56.8478 0.391131 57.609Z" fill="#E3E3E3"/>
<path d="M0.391131 113.24C0.391131 114.001 1.00816 114.618 1.7693 114.618C2.53043 114.618 3.14746 114.001 3.14746 113.24C3.14746 112.479 2.53044 111.862 1.7693 111.862C1.00816 111.862 0.391131 112.479 0.391131 113.24Z" fill="#E3E3E3"/>
<path d="M13.6109 1.97964C13.6109 2.74078 14.2279 3.3578 14.989 3.3578C15.7502 3.3578 16.3672 2.74078 16.3672 1.97964C16.3672 1.2185 15.7502 0.601471 14.989 0.601471C14.2279 0.601471 13.6109 1.2185 13.6109 1.97964Z" fill="#E3E3E3"/>
<path d="M13.6109 113.242C13.6109 114.003 14.2279 114.62 14.989 114.62C15.7502 114.62 16.3672 114.003 16.3672 113.242C16.3672 112.481 15.7502 111.864 14.989 111.864C14.2279 111.864 13.6109 112.481 13.6109 113.242Z" fill="#E3E3E3"/>
<path d="M13.6109 57.6105C13.6109 58.3716 14.2279 58.9886 14.989 58.9886C15.7502 58.9886 16.3672 58.3716 16.3672 57.6105C16.3672 56.8493 15.7502 56.2323 14.989 56.2323C14.2279 56.2323 13.6109 56.8493 13.6109 57.6105Z" fill="#E3E3E3"/>
<path d="M13.5581 43.7042C13.5581 44.4653 14.1751 45.0823 14.9363 45.0823C15.6974 45.0823 16.3145 44.4653 16.3145 43.7042C16.3145 42.943 15.6974 42.326 14.9363 42.326C14.1751 42.326 13.5581 42.943 13.5581 43.7042Z" fill="#E3E3E3"/>
<path d="M13.5581 154.966C13.5581 155.727 14.1751 156.344 14.9363 156.344C15.6974 156.344 16.3145 155.727 16.3145 154.966C16.3145 154.205 15.6974 153.588 14.9363 153.588C14.1751 153.588 13.5581 154.205 13.5581 154.966Z" fill="#E3E3E3"/>
<path d="M13.5581 99.3354C13.5581 100.097 14.1751 100.714 14.9363 100.714C15.6974 100.714 16.3145 100.097 16.3145 99.3354C16.3145 98.5742 15.6974 97.9572 14.9363 97.9572C14.1751 97.9572 13.5581 98.5742 13.5581 99.3354Z" fill="#E3E3E3"/>
<path d="M13.5591 15.8874C13.5591 16.6486 14.1761 17.2656 14.9373 17.2656C15.6984 17.2656 16.3154 16.6486 16.3154 15.8874C16.3154 15.1263 15.6984 14.5093 14.9373 14.5093C14.1761 14.5093 13.5591 15.1263 13.5591 15.8874Z" fill="#E3E3E3"/>
<path d="M13.5591 127.149C13.5591 127.911 14.1761 128.528 14.9373 128.528C15.6984 128.528 16.3154 127.911 16.3154 127.149C16.3154 126.388 15.6984 125.771 14.9373 125.771C14.1761 125.771 13.5591 126.388 13.5591 127.149Z" fill="#E3E3E3"/>
<path d="M13.5591 71.5183C13.5591 72.2794 14.1761 72.8964 14.9373 72.8964C15.6984 72.8964 16.3154 72.2794 16.3154 71.5183C16.3154 70.7571 15.6984 70.1401 14.9373 70.1401C14.1761 70.1401 13.5591 70.7571 13.5591 71.5183Z" fill="#E3E3E3"/>
<path d="M13.6118 57.609C13.6118 58.3701 14.2289 58.9871 14.99 58.9871C15.7511 58.9871 16.3682 58.3701 16.3682 57.609C16.3682 56.8478 15.7511 56.2308 14.99 56.2308C14.2289 56.2308 13.6118 56.8478 13.6118 57.609Z" fill="#E3E3E3"/>
<path d="M13.6118 113.24C13.6118 114.001 14.2289 114.618 14.99 114.618C15.7511 114.618 16.3682 114.001 16.3682 113.24C16.3682 112.479 15.7511 111.862 14.99 111.862C14.2289 111.862 13.6118 112.479 13.6118 113.24Z" fill="#E3E3E3"/>
<path d="M13.5591 29.7952C13.5591 30.5564 14.1761 31.1734 14.9373 31.1734C15.6984 31.1734 16.3154 30.5564 16.3154 29.7952C16.3154 29.0341 15.6984 28.4171 14.9373 28.4171C14.1761 28.4171 13.5591 29.0341 13.5591 29.7952Z" fill="#E3E3E3"/>
<path d="M13.5591 141.057C13.5591 141.818 14.1761 142.435 14.9373 142.435C15.6984 142.435 16.3154 141.818 16.3154 141.057C16.3154 140.296 15.6984 139.679 14.9373 139.679C14.1761 139.679 13.5591 140.296 13.5591 141.057Z" fill="#E3E3E3"/>
<path d="M13.5591 85.4261C13.5591 86.1872 14.1761 86.8043 14.9373 86.8043C15.6984 86.8043 16.3154 86.1872 16.3154 85.4261C16.3154 84.665 15.6984 84.0479 14.9373 84.0479C14.1761 84.0479 13.5591 84.665 13.5591 85.4261Z" fill="#E3E3E3"/>
<path d="M41.5669 1.97964C41.5669 2.74078 42.1839 3.3578 42.9451 3.3578C43.7062 3.3578 44.3232 2.74078 44.3232 1.97964C44.3232 1.2185 43.7062 0.601471 42.9451 0.601471C42.1839 0.601471 41.5669 1.2185 41.5669 1.97964Z" fill="#E3E3E3"/>
<path d="M41.5669 113.242C41.5669 114.003 42.1839 114.62 42.9451 114.62C43.7062 114.62 44.3232 114.003 44.3232 113.242C44.3232 112.481 43.7062 111.864 42.9451 111.864C42.1839 111.864 41.5669 112.481 41.5669 113.242Z" fill="#E3E3E3"/>
<path d="M41.5669 57.6105C41.5669 58.3716 42.1839 58.9886 42.9451 58.9886C43.7062 58.9886 44.3232 58.3716 44.3232 57.6105C44.3232 56.8493 43.7062 56.2323 42.9451 56.2323C42.1839 56.2323 41.5669 56.8493 41.5669 57.6105Z" fill="#E3E3E3"/>
<path d="M41.5132 43.7042C41.5132 44.4653 42.1302 45.0823 42.8914 45.0823C43.6525 45.0823 44.2695 44.4653 44.2695 43.7042C44.2695 42.943 43.6525 42.326 42.8914 42.326C42.1302 42.326 41.5132 42.943 41.5132 43.7042Z" fill="#E3E3E3"/>
<path d="M41.5132 154.966C41.5132 155.727 42.1302 156.344 42.8914 156.344C43.6525 156.344 44.2695 155.727 44.2695 154.966C44.2695 154.205 43.6525 153.588 42.8914 153.588C42.1302 153.588 41.5132 154.205 41.5132 154.966Z" fill="#E3E3E3"/>
<path d="M41.5132 99.3354C41.5132 100.097 42.1302 100.714 42.8914 100.714C43.6525 100.714 44.2695 100.097 44.2695 99.3354C44.2695 98.5742 43.6525 97.9572 42.8914 97.9572C42.1302 97.9572 41.5132 98.5742 41.5132 99.3354Z" fill="#E3E3E3"/>
<path d="M41.5142 15.8874C41.5142 16.6486 42.1312 17.2656 42.8923 17.2656C43.6535 17.2656 44.2705 16.6486 44.2705 15.8874C44.2705 15.1263 43.6535 14.5093 42.8923 14.5093C42.1312 14.5093 41.5142 15.1263 41.5142 15.8874Z" fill="#E3E3E3"/>
<path d="M41.5142 127.149C41.5142 127.911 42.1312 128.528 42.8923 128.528C43.6535 128.528 44.2705 127.911 44.2705 127.149C44.2705 126.388 43.6535 125.771 42.8923 125.771C42.1312 125.771 41.5142 126.388 41.5142 127.149Z" fill="#E3E3E3"/>
<path d="M41.5142 71.5183C41.5142 72.2794 42.1312 72.8964 42.8923 72.8964C43.6535 72.8964 44.2705 72.2794 44.2705 71.5183C44.2705 70.7571 43.6535 70.1401 42.8923 70.1401C42.1312 70.1401 41.5142 70.7571 41.5142 71.5183Z" fill="#E3E3E3"/>
<path d="M41.5679 57.609C41.5679 58.3701 42.1849 58.9872 42.9461 58.9872C43.7072 58.9872 44.3242 58.3701 44.3242 57.609C44.3242 56.8478 43.7072 56.2308 42.9461 56.2308C42.1849 56.2308 41.5679 56.8478 41.5679 57.609Z" fill="#E3E3E3"/>
<path d="M41.5679 113.24C41.5679 114.001 42.1849 114.618 42.9461 114.618C43.7072 114.618 44.3242 114.001 44.3242 113.24C44.3242 112.479 43.7072 111.862 42.9461 111.862C42.1849 111.862 41.5679 112.479 41.5679 113.24Z" fill="#E3E3E3"/>
<path d="M41.5161 29.7938C41.5161 30.5549 42.1332 31.1719 42.8943 31.1719C43.6554 31.1719 44.2725 30.5549 44.2725 29.7938C44.2725 29.0326 43.6554 28.4156 42.8943 28.4156C42.1332 28.4156 41.5161 29.0326 41.5161 29.7938Z" fill="#E3E3E3"/>
<path d="M41.5152 141.055C41.5152 141.817 42.1322 142.434 42.8933 142.434C43.6545 142.434 44.2715 141.817 44.2715 141.055C44.2715 140.294 43.6545 139.677 42.8933 139.677C42.1322 139.677 41.5152 140.294 41.5152 141.055Z" fill="#E3E3E3"/>
<path d="M41.5152 85.4246C41.5152 86.1857 42.1322 86.8027 42.8933 86.8027C43.6545 86.8027 44.2715 86.1857 44.2715 85.4246C44.2715 84.6634 43.6545 84.0464 42.8933 84.0464C42.1322 84.0464 41.5152 84.6634 41.5152 85.4246Z" fill="#E3E3E3"/>
</svg>
