<svg width="121" height="323" viewBox="0 0 121 323" fill="none" xmlns="http://www.w3.org/2000/svg">
<path d="M115.221 2.85431C115.221 4.43071 116.499 5.70863 118.075 5.70863C119.652 5.70863 120.93 4.43071 120.93 2.85431C120.93 1.27792 119.652 -5.58597e-08 118.075 -1.24766e-07C116.499 -1.93672e-07 115.221 1.27792 115.221 2.85431Z" fill="#E3E3E3"/>
<path d="M115.22 233.289C115.22 234.865 116.498 236.143 118.074 236.143C119.651 236.143 120.929 234.865 120.929 233.289C120.929 231.713 119.651 230.435 118.074 230.435C116.498 230.435 115.22 231.713 115.22 233.289Z" fill="#E3E3E3"/>
<path d="M115.22 118.071C115.22 119.648 116.498 120.926 118.074 120.926C119.651 120.926 120.929 119.648 120.929 118.071C120.929 116.495 119.651 115.217 118.074 115.217C116.498 115.217 115.22 116.495 115.22 118.071Z" fill="#E3E3E3"/>
<path d="M115.108 89.2699C115.108 90.8463 116.386 92.1242 117.962 92.1242C119.538 92.1242 120.816 90.8463 120.816 89.2699C120.816 87.6935 119.538 86.4156 117.962 86.4156C116.386 86.4156 115.108 87.6935 115.108 89.2699Z" fill="#E3E3E3"/>
<path d="M115.108 319.704C115.108 321.281 116.386 322.559 117.962 322.559C119.538 322.559 120.816 321.281 120.816 319.704C120.816 318.128 119.538 316.85 117.962 316.85C116.386 316.85 115.108 318.128 115.108 319.704Z" fill="#E3E3E3"/>
<path d="M115.108 204.488C115.108 206.064 116.386 207.342 117.962 207.342C119.538 207.342 120.816 206.064 120.816 204.488C120.816 202.911 119.538 201.633 117.962 201.633C116.386 201.633 115.108 202.911 115.108 204.488Z" fill="#E3E3E3"/>
<path d="M115.22 60.4601C115.22 62.0365 116.498 63.3144 118.074 63.3144C119.651 63.3144 120.929 62.0365 120.929 60.4601C120.929 58.8837 119.651 57.6058 118.074 57.6058C116.498 57.6058 115.22 58.8837 115.22 60.4601Z" fill="#E3E3E3"/>
<path d="M115.22 290.894C115.22 292.47 116.498 293.748 118.074 293.748C119.651 293.748 120.929 292.47 120.929 290.894C120.929 289.318 119.651 288.04 118.074 288.04C116.498 288.04 115.22 289.318 115.22 290.894Z" fill="#E3E3E3"/>
<path d="M115.22 175.677C115.22 177.253 116.498 178.531 118.074 178.531C119.651 178.531 120.929 177.253 120.929 175.677C120.929 174.101 119.651 172.823 118.074 172.823C116.498 172.823 115.22 174.101 115.22 175.677Z" fill="#E3E3E3"/>
<path d="M115.111 31.6587C115.111 33.2351 116.389 34.513 117.965 34.513C119.541 34.513 120.819 33.2351 120.819 31.6587C120.819 30.0823 119.541 28.8044 117.965 28.8044C116.389 28.8044 115.111 30.0823 115.111 31.6587Z" fill="#E3E3E3"/>
<path d="M115.111 262.093C115.111 263.67 116.389 264.948 117.965 264.948C119.541 264.948 120.819 263.67 120.819 262.093C120.819 260.517 119.541 259.239 117.965 259.239C116.389 259.239 115.111 260.517 115.111 262.093Z" fill="#E3E3E3"/>
<path d="M115.111 146.876C115.111 148.452 116.389 149.73 117.965 149.73C119.541 149.73 120.819 148.452 120.819 146.876C120.819 145.299 119.541 144.021 117.965 144.021C116.389 144.021 115.111 145.299 115.111 146.876Z" fill="#E3E3E3"/>
<path d="M115.223 118.068C115.223 119.645 116.501 120.922 118.077 120.922C119.654 120.922 120.932 119.645 120.932 118.068C120.932 116.492 119.654 115.214 118.077 115.214C116.501 115.214 115.223 116.492 115.223 118.068Z" fill="#E3E3E3"/>
<path d="M115.223 233.286C115.223 234.862 116.501 236.14 118.077 236.14C119.654 236.14 120.932 234.862 120.932 233.286C120.932 231.709 119.654 230.432 118.077 230.432C116.501 230.432 115.223 231.709 115.223 233.286Z" fill="#E3E3E3"/>
<path d="M57.7211 2.85431C57.7211 4.43071 58.999 5.70863 60.5754 5.70863C62.1518 5.70863 63.4297 4.43071 63.4297 2.85431C63.4297 1.27792 62.1518 -5.58597e-08 60.5754 -1.24766e-07C58.999 -1.93672e-07 57.7211 1.27792 57.7211 2.85431Z" fill="#E3E3E3"/>
<path d="M57.7211 233.289C57.7211 234.865 58.999 236.143 60.5754 236.143C62.1518 236.143 63.4297 234.865 63.4297 233.289C63.4297 231.713 62.1518 230.435 60.5754 230.435C58.999 230.435 57.7211 231.713 57.7211 233.289Z" fill="#E3E3E3"/>
<path d="M57.7211 118.071C57.7211 119.648 58.999 120.926 60.5754 120.926C62.1518 120.926 63.4297 119.648 63.4297 118.071C63.4297 116.495 62.1518 115.217 60.5754 115.217C58.999 115.217 57.7211 116.495 57.7211 118.071Z" fill="#E3E3E3"/>
<path d="M57.6088 89.2699C57.6088 90.8463 58.8867 92.1242 60.4631 92.1242C62.0395 92.1242 63.3174 90.8463 63.3174 89.2699C63.3174 87.6935 62.0395 86.4156 60.4631 86.4156C58.8867 86.4156 57.6088 87.6935 57.6088 89.2699Z" fill="#E3E3E3"/>
<path d="M57.6088 319.704C57.6088 321.281 58.8867 322.559 60.4631 322.559C62.0395 322.559 63.3174 321.281 63.3174 319.704C63.3174 318.128 62.0395 316.85 60.4631 316.85C58.8867 316.85 57.6088 318.128 57.6088 319.704Z" fill="#E3E3E3"/>
<path d="M57.6088 204.488C57.6088 206.064 58.8867 207.342 60.4631 207.342C62.0395 207.342 63.3174 206.064 63.3174 204.488C63.3174 202.911 62.0395 201.633 60.4631 201.633C58.8867 201.633 57.6088 202.911 57.6088 204.488Z" fill="#E3E3E3"/>
<path d="M57.6117 31.6587C57.6117 33.2351 58.8896 34.513 60.466 34.513C62.0424 34.513 63.3203 33.2351 63.3203 31.6587C63.3203 30.0823 62.0424 28.8044 60.466 28.8044C58.8896 28.8044 57.6117 30.0823 57.6117 31.6587Z" fill="#E3E3E3"/>
<path d="M57.6117 262.093C57.6117 263.67 58.8896 264.948 60.466 264.948C62.0424 264.948 63.3203 263.67 63.3203 262.093C63.3203 260.517 62.0424 259.239 60.466 259.239C58.8896 259.239 57.6117 260.517 57.6117 262.093Z" fill="#E3E3E3"/>
<path d="M57.6117 146.876C57.6117 148.452 58.8896 149.73 60.466 149.73C62.0424 149.73 63.3203 148.452 63.3203 146.876C63.3203 145.299 62.0424 144.021 60.466 144.021C58.8896 144.021 57.6117 145.299 57.6117 146.876Z" fill="#E3E3E3"/>
<path d="M57.724 118.068C57.724 119.645 59.0019 120.922 60.5783 120.922C62.1547 120.922 63.4326 119.645 63.4326 118.068C63.4326 116.492 62.1547 115.214 60.5783 115.214C59.0019 115.214 57.724 116.492 57.724 118.068Z" fill="#E3E3E3"/>
<path d="M57.724 233.286C57.724 234.862 59.0019 236.14 60.5783 236.14C62.1547 236.14 63.4326 234.862 63.4326 233.286C63.4326 231.709 62.1547 230.432 60.5783 230.432C59.0019 230.432 57.724 231.709 57.724 233.286Z" fill="#E3E3E3"/>
<path d="M57.6117 60.4632C57.6117 62.0396 58.8896 63.3175 60.466 63.3175C62.0424 63.3175 63.3203 62.0396 63.3203 60.4632C63.3203 58.8868 62.0424 57.6089 60.466 57.6089C58.8896 57.6089 57.6117 58.8868 57.6117 60.4632Z" fill="#E3E3E3"/>
<path d="M57.6117 290.897C57.6117 292.473 58.8896 293.751 60.466 293.751C62.0424 293.751 63.3203 292.473 63.3203 290.897C63.3203 289.321 62.0424 288.043 60.466 288.043C58.8896 288.043 57.6117 289.321 57.6117 290.897Z" fill="#E3E3E3"/>
<path d="M57.6117 175.68C57.6117 177.256 58.8896 178.534 60.466 178.534C62.0424 178.534 63.3203 177.256 63.3203 175.68C63.3203 174.104 62.0424 172.826 60.466 172.826C58.8896 172.826 57.6117 174.104 57.6117 175.68Z" fill="#E3E3E3"/>
<path d="M0.10973 2.85431C0.10973 4.43071 1.38765 5.70863 2.96404 5.70863C4.54044 5.70863 5.81836 4.43071 5.81836 2.85431C5.81836 1.27792 4.54044 -5.58597e-08 2.96404 -1.24766e-07C1.38765 -1.93672e-07 0.10973 1.27792 0.10973 2.85431Z" fill="#E3E3E3"/>
<path d="M0.10973 233.289C0.10973 234.865 1.38765 236.143 2.96404 236.143C4.54044 236.143 5.81836 234.865 5.81836 233.289C5.81836 231.713 4.54044 230.435 2.96404 230.435C1.38765 230.435 0.10973 231.713 0.10973 233.289Z" fill="#E3E3E3"/>
<path d="M0.10973 118.071C0.10973 119.648 1.38765 120.926 2.96404 120.926C4.54044 120.926 5.81836 119.648 5.81836 118.071C5.81836 116.495 4.54044 115.217 2.96404 115.217C1.38765 115.217 0.10973 116.495 0.10973 118.071Z" fill="#E3E3E3"/>
<path d="M0.000354642 89.2699C0.000354573 90.8463 1.27828 92.1242 2.85467 92.1242C4.43107 92.1242 5.70898 90.8463 5.70898 89.2699C5.70898 87.6935 4.43107 86.4156 2.85467 86.4156C1.27828 86.4156 0.000354711 87.6935 0.000354642 89.2699Z" fill="#E3E3E3"/>
<path d="M0.000354642 319.704C0.000354573 321.281 1.27828 322.559 2.85467 322.559C4.43107 322.559 5.70898 321.281 5.70898 319.704C5.70898 318.128 4.43107 316.85 2.85467 316.85C1.27828 316.85 0.000354711 318.128 0.000354642 319.704Z" fill="#E3E3E3"/>
<path d="M0.000354642 204.488C0.000354573 206.064 1.27828 207.342 2.85467 207.342C4.43107 207.342 5.70898 206.064 5.70898 204.488C5.70898 202.911 4.43107 201.633 2.85467 201.633C1.27828 201.633 0.000354711 202.911 0.000354642 204.488Z" fill="#E3E3E3"/>
<path d="M0.10973 60.4601C0.10973 62.0365 1.38765 63.3144 2.96404 63.3144C4.54044 63.3144 5.81836 62.0365 5.81836 60.4601C5.81836 58.8837 4.54044 57.6058 2.96404 57.6058C1.38765 57.6058 0.10973 58.8837 0.10973 60.4601Z" fill="#E3E3E3"/>
<path d="M0.10973 290.894C0.10973 292.47 1.38765 293.748 2.96404 293.748C4.54044 293.748 5.81836 292.47 5.81836 290.894C5.81836 289.318 4.54044 288.04 2.96404 288.04C1.38765 288.04 0.10973 289.318 0.10973 290.894Z" fill="#E3E3E3"/>
<path d="M0.10973 175.677C0.10973 177.253 1.38765 178.531 2.96404 178.531C4.54044 178.531 5.81836 177.253 5.81836 175.677C5.81836 174.101 4.54044 172.823 2.96404 172.823C1.38765 172.823 0.10973 174.101 0.10973 175.677Z" fill="#E3E3E3"/>
<path d="M0.00328433 31.6587C0.00328426 33.2351 1.28121 34.513 2.8576 34.513C4.434 34.513 5.71191 33.2351 5.71191 31.6587C5.71191 30.0823 4.434 28.8044 2.8576 28.8044C1.28121 28.8044 0.0032844 30.0823 0.00328433 31.6587Z" fill="#E3E3E3"/>
<path d="M0.00328433 262.093C0.00328426 263.67 1.28121 264.948 2.8576 264.948C4.434 264.948 5.71191 263.67 5.71191 262.093C5.71191 260.517 4.434 259.239 2.8576 259.239C1.28121 259.239 0.0032844 260.517 0.00328433 262.093Z" fill="#E3E3E3"/>
<path d="M0.00328433 146.876C0.00328426 148.452 1.28121 149.73 2.8576 149.73C4.434 149.73 5.71191 148.452 5.71191 146.876C5.71191 145.299 4.434 144.021 2.8576 144.021C1.28121 144.021 0.0032844 145.299 0.00328433 146.876Z" fill="#E3E3E3"/>
<path d="M0.112659 118.068C0.112659 119.645 1.39058 120.922 2.96697 120.922C4.54337 120.922 5.82129 119.645 5.82129 118.068C5.82129 116.492 4.54337 115.214 2.96697 115.214C1.39058 115.214 0.112659 116.492 0.112659 118.068Z" fill="#E3E3E3"/>
<path d="M0.112659 233.286C0.112659 234.862 1.39058 236.14 2.96697 236.14C4.54337 236.14 5.82129 234.862 5.82129 233.286C5.82129 231.709 4.54337 230.432 2.96697 230.432C1.39058 230.432 0.112659 231.709 0.112659 233.286Z" fill="#E3E3E3"/>
<path d="M27.4906 2.85431C27.4906 4.43071 28.7685 5.70863 30.3449 5.70863C31.9213 5.70863 33.1992 4.43071 33.1992 2.85431C33.1992 1.27792 31.9213 -5.58596e-08 30.3449 -1.24766e-07C28.7685 -1.93672e-07 27.4906 1.27792 27.4906 2.85431Z" fill="#E3E3E3"/>
<path d="M27.4906 233.289C27.4906 234.865 28.7685 236.143 30.3449 236.143C31.9213 236.143 33.1992 234.865 33.1992 233.289C33.1992 231.713 31.9213 230.435 30.3449 230.435C28.7685 230.435 27.4906 231.713 27.4906 233.289Z" fill="#E3E3E3"/>
<path d="M27.4906 118.071C27.4906 119.648 28.7685 120.926 30.3449 120.926C31.9213 120.926 33.1992 119.648 33.1992 118.071C33.1992 116.495 31.9213 115.217 30.3449 115.217C28.7685 115.217 27.4906 116.495 27.4906 118.071Z" fill="#E3E3E3"/>
<path d="M27.3812 89.2699C27.3812 90.8463 28.6591 92.1242 30.2355 92.1242C31.8119 92.1242 33.0898 90.8463 33.0898 89.2699C33.0898 87.6935 31.8119 86.4156 30.2355 86.4156C28.6591 86.4156 27.3812 87.6935 27.3812 89.2699Z" fill="#E3E3E3"/>
<path d="M27.3812 319.704C27.3812 321.281 28.6591 322.559 30.2355 322.559C31.8119 322.559 33.0898 321.281 33.0898 319.704C33.0898 318.128 31.8119 316.85 30.2355 316.85C28.6591 316.85 27.3812 318.128 27.3812 319.704Z" fill="#E3E3E3"/>
<path d="M27.3812 204.488C27.3812 206.064 28.6591 207.342 30.2355 207.342C31.8119 207.342 33.0898 206.064 33.0898 204.488C33.0898 202.911 31.8119 201.633 30.2355 201.633C28.6591 201.633 27.3812 202.911 27.3812 204.488Z" fill="#E3E3E3"/>
<path d="M27.3841 31.6587C27.3841 33.2351 28.6621 34.513 30.2385 34.513C31.8149 34.513 33.0928 33.2351 33.0928 31.6587C33.0928 30.0823 31.8149 28.8044 30.2385 28.8044C28.6621 28.8044 27.3841 30.0823 27.3841 31.6587Z" fill="#E3E3E3"/>
<path d="M27.3841 262.093C27.3841 263.67 28.6621 264.948 30.2385 264.948C31.8149 264.948 33.0928 263.67 33.0928 262.093C33.0928 260.517 31.8149 259.239 30.2385 259.239C28.6621 259.239 27.3841 260.517 27.3841 262.093Z" fill="#E3E3E3"/>
<path d="M27.3841 146.876C27.3841 148.452 28.6621 149.73 30.2385 149.73C31.8149 149.73 33.0928 148.452 33.0928 146.876C33.0928 145.299 31.8149 144.021 30.2385 144.021C28.6621 144.021 27.3841 145.299 27.3841 146.876Z" fill="#E3E3E3"/>
<path d="M27.4935 118.068C27.4935 119.645 28.7714 120.922 30.3478 120.922C31.9242 120.922 33.2021 119.645 33.2021 118.068C33.2021 116.492 31.9242 115.214 30.3478 115.214C28.7714 115.214 27.4935 116.492 27.4935 118.068Z" fill="#E3E3E3"/>
<path d="M27.4935 233.286C27.4935 234.862 28.7714 236.14 30.3478 236.14C31.9242 236.14 33.2021 234.862 33.2021 233.286C33.2021 231.709 31.9242 230.432 30.3478 230.432C28.7714 230.432 27.4935 231.709 27.4935 233.286Z" fill="#E3E3E3"/>
<path d="M27.3841 60.4631C27.3841 62.0395 28.6621 63.3175 30.2385 63.3175C31.8149 63.3175 33.0928 62.0395 33.0928 60.4631C33.0928 58.8867 31.8149 57.6088 30.2385 57.6088C28.6621 57.6088 27.3841 58.8867 27.3841 60.4631Z" fill="#E3E3E3"/>
<path d="M27.3841 290.897C27.3841 292.473 28.6621 293.751 30.2385 293.751C31.8149 293.751 33.0928 292.473 33.0928 290.897C33.0928 289.321 31.8149 288.043 30.2385 288.043C28.6621 288.043 27.3841 289.321 27.3841 290.897Z" fill="#E3E3E3"/>
<path d="M27.3841 175.68C27.3841 177.256 28.6621 178.534 30.2385 178.534C31.8149 178.534 33.0928 177.256 33.0928 175.68C33.0928 174.104 31.8149 172.826 30.2385 172.826C28.6621 172.826 27.3841 174.104 27.3841 175.68Z" fill="#E3E3E3"/>
<path d="M85.391 2.85431C85.391 4.43071 86.6689 5.70863 88.2453 5.70863C89.8217 5.70863 91.0996 4.43071 91.0996 2.85431C91.0996 1.27792 89.8217 -5.58597e-08 88.2453 -1.24766e-07C86.6689 -1.93672e-07 85.391 1.27792 85.391 2.85431Z" fill="#E3E3E3"/>
<path d="M85.391 233.289C85.391 234.865 86.6689 236.143 88.2453 236.143C89.8217 236.143 91.0996 234.865 91.0996 233.289C91.0996 231.713 89.8217 230.435 88.2453 230.435C86.6689 230.435 85.391 231.713 85.391 233.289Z" fill="#E3E3E3"/>
<path d="M85.391 118.071C85.391 119.648 86.6689 120.926 88.2453 120.926C89.8217 120.926 91.0996 119.648 91.0996 118.071C91.0996 116.495 89.8217 115.217 88.2453 115.217C86.6689 115.217 85.391 116.495 85.391 118.071Z" fill="#E3E3E3"/>
<path d="M85.2777 89.2699C85.2777 90.8463 86.5556 92.1242 88.132 92.1242C89.7084 92.1242 90.9863 90.8463 90.9863 89.2699C90.9863 87.6935 89.7084 86.4156 88.132 86.4156C86.5556 86.4156 85.2777 87.6935 85.2777 89.2699Z" fill="#E3E3E3"/>
<path d="M85.2777 319.704C85.2777 321.281 86.5556 322.559 88.132 322.559C89.7084 322.559 90.9863 321.281 90.9863 319.704C90.9863 318.128 89.7084 316.85 88.132 316.85C86.5556 316.85 85.2777 318.128 85.2777 319.704Z" fill="#E3E3E3"/>
<path d="M85.2777 204.488C85.2777 206.064 86.5556 207.342 88.132 207.342C89.7084 207.342 90.9863 206.064 90.9863 204.488C90.9863 202.911 89.7084 201.633 88.132 201.633C86.5556 201.633 85.2777 202.911 85.2777 204.488Z" fill="#E3E3E3"/>
<path d="M85.2806 31.6587C85.2806 33.2351 86.5585 34.513 88.1349 34.513C89.7113 34.513 90.9893 33.2351 90.9893 31.6587C90.9893 30.0823 89.7113 28.8044 88.1349 28.8044C86.5585 28.8044 85.2806 30.0823 85.2806 31.6587Z" fill="#E3E3E3"/>
<path d="M85.2806 262.093C85.2806 263.67 86.5585 264.948 88.1349 264.948C89.7113 264.948 90.9893 263.67 90.9893 262.093C90.9893 260.517 89.7113 259.239 88.1349 259.239C86.5585 259.239 85.2806 260.517 85.2806 262.093Z" fill="#E3E3E3"/>
<path d="M85.2806 146.876C85.2806 148.452 86.5585 149.73 88.1349 149.73C89.7113 149.73 90.9893 148.452 90.9893 146.876C90.9893 145.299 89.7113 144.021 88.1349 144.021C86.5585 144.021 85.2806 145.299 85.2806 146.876Z" fill="#E3E3E3"/>
<path d="M85.3929 118.068C85.3929 119.645 86.6709 120.922 88.2472 120.922C89.8236 120.922 91.1016 119.645 91.1016 118.068C91.1016 116.492 89.8236 115.214 88.2472 115.214C86.6709 115.214 85.3929 116.492 85.3929 118.068Z" fill="#E3E3E3"/>
<path d="M85.3929 233.286C85.3929 234.862 86.6709 236.14 88.2472 236.14C89.8236 236.14 91.1016 234.862 91.1016 233.286C91.1016 231.709 89.8236 230.432 88.2472 230.432C86.6709 230.432 85.3929 231.709 85.3929 233.286Z" fill="#E3E3E3"/>
<path d="M85.2845 60.4601C85.2845 62.0365 86.5625 63.3144 88.1388 63.3144C89.7152 63.3144 90.9932 62.0365 90.9932 60.4601C90.9932 58.8837 89.7152 57.6058 88.1388 57.6058C86.5625 57.6058 85.2845 58.8837 85.2845 60.4601Z" fill="#E3E3E3"/>
<path d="M85.2836 290.894C85.2836 292.47 86.5615 293.748 88.1379 293.748C89.7143 293.748 90.9922 292.47 90.9922 290.894C90.9922 289.318 89.7143 288.04 88.1379 288.04C86.5615 288.04 85.2836 289.318 85.2836 290.894Z" fill="#E3E3E3"/>
<path d="M85.2836 175.677C85.2836 177.253 86.5615 178.531 88.1379 178.531C89.7143 178.531 90.9922 177.253 90.9922 175.677C90.9922 174.101 89.7143 172.823 88.1379 172.823C86.5615 172.823 85.2836 174.101 85.2836 175.677Z" fill="#E3E3E3"/>
</svg>
