<svg width="163" height="42" viewBox="0 0 163 8" fill="none" xmlns="http://www.w3.org/2000/svg">
<path d="M120.113 7.78104C122.219 7.78104 123.926 6.07357 123.926 3.9673C123.926 1.86103 122.219 0.153564 120.113 0.153564C118.006 0.153564 116.299 1.86103 116.299 3.9673C116.299 6.07357 118.006 7.78104 120.113 7.78104Z" fill="#E3E3E3"/>
<path d="M81.6184 7.63114C83.7247 7.63114 85.4322 5.92367 85.4322 3.8174C85.4322 1.71113 83.7247 0.00366211 81.6184 0.00366211C79.5122 0.00366211 77.8047 1.71113 77.8047 3.8174C77.8047 5.92367 79.5122 7.63114 81.6184 7.63114Z" fill="#E3E3E3"/>
<path d="M43.136 7.77738C45.2423 7.77738 46.9497 6.06991 46.9497 3.96364C46.9497 1.85737 45.2423 0.149902 43.136 0.149902C41.0297 0.149902 39.3223 1.85737 39.3223 3.96364C39.3223 6.06991 41.0297 7.77738 43.136 7.77738Z" fill="#E3E3E3"/>
<path d="M4.64577 7.62748C6.75204 7.62748 8.45951 5.92001 8.45951 3.81374C8.45951 1.70747 6.75204 0 4.64577 0C2.5395 0 0.832031 1.70747 0.832031 3.81374C0.832031 5.92001 2.5395 7.62748 4.64577 7.62748Z" fill="#E3E3E3"/>
<path d="M158.591 7.62748C160.697 7.62748 162.405 5.92001 162.405 3.81374C162.405 1.70747 160.697 0 158.591 0C156.485 0 154.777 1.70747 154.777 3.81374C154.777 5.92001 156.485 7.62748 158.591 7.62748Z" fill="#E3E3E3"/>
</svg>