<svg width="31" height="30" viewBox="0 0 31 30" fill="none" xmlns="http://www.w3.org/2000/svg">
<path d="M29.2188 15C29.2188 22.732 22.9507 29 15.2188 29C7.48676 29 1.21875 22.732 1.21875 15C1.21875 7.26801 7.48676 1 15.2188 1C22.9507 1 29.2188 7.26801 29.2188 15Z" stroke="#000" stroke-width="2"/>
<path d="M7.08258 14.6748L21.5451 9.09852C22.2163 8.85602 22.8026 9.26227 22.5851 10.2773L22.5863 10.276L20.1238 21.8773C19.9413 22.6998 19.4526 22.8998 18.7688 22.5123L15.0188 19.7485L13.2101 21.491C13.0101 21.691 12.8413 21.8598 12.4538 21.8598L12.7201 18.0435L19.6701 11.7648C19.9726 11.4985 19.6026 11.3485 19.2038 11.6135L10.6151 17.021L6.91258 15.866C6.10883 15.611 6.09133 15.0623 7.08258 14.6748Z" fill="#000"/>
</svg>
