<svg width="231" height="60" viewBox="0 0 231 60" fill="none" xmlns="http://www.w3.org/2000/svg">
<g opacity="0.5" clip-path="url(#clip0)">
<path d="M124.923 30.1314L118.424 0.262695H124.004L127.746 17.3305L131.488 0.262695H137.068L130.569 30.1314V60.0001H124.989V30.1314H124.923Z" fill="white"/>
<path d="M155.645 24.5513V30.1312L148.162 30.1968V54.42H159.322L159.387 59.9999H142.582V0.328125H159.387V5.90799H148.228V24.5513H155.645Z" fill="white"/>
<path d="M178.03 24.5513V30.1312L170.547 30.1968V54.42H181.706L181.772 59.9999H164.967V0.328125H181.772V5.90799H170.612V24.5513H178.03Z" fill="white"/>
<path d="M199.234 5.90799H187.417V0.328125H206.061L194.245 54.42H206.061V59.9999H187.417L199.234 5.90799Z" fill="white"/>
<path d="M218.14 30.1314L211.641 0.262695H217.221L220.963 17.3305L224.705 0.262695H230.284L223.786 30.1314V60.0001H218.206V30.1314H218.14Z" fill="white"/>
<path d="M102.407 0.393555H42.9321V59.8684H102.407V0.393555Z" fill="white"/>
<path d="M42.9321 0C44.1137 1.4442 45.2953 2.82276 46.28 4.26696C49.8905 9.71554 52.0568 15.6893 53.3041 22.1225C54.0918 26.4551 54.2231 30.7877 53.7636 35.1203C53.698 35.7112 53.5667 35.9737 52.9102 35.9737C46.1487 35.9737 39.4529 35.9737 32.6914 35.9737C31.9037 35.9737 31.838 35.5142 31.838 34.9891C31.838 32.035 31.6411 29.0153 31.838 26.0613C32.3632 19.7593 34.1356 13.7856 37.024 8.14004C38.3369 5.51422 39.9124 3.08534 41.9474 0.984683C42.21 0.656455 42.4726 0.393873 42.9321 0Z" fill="#101619"/>
<path d="M29.6718 35.9737C28.4245 35.9737 27.3085 35.9737 26.1926 35.9737C19.3654 35.9737 12.4726 35.9737 5.64551 35.9737C4.92341 35.9737 4.52954 35.7767 4.20131 35.1203C2.23195 30.8533 0.656455 26.4551 0.131291 21.7942C0 20.4813 0 19.2341 0 17.9212C0 16.8708 0.0656455 16.8052 1.11597 16.9365C4.92341 17.4616 8.46827 18.6433 11.9475 20.2844C18.9059 23.6323 24.6827 28.3588 29.081 34.7264C29.2122 34.9233 29.4092 35.1859 29.5405 35.3829C29.5405 35.5141 29.6061 35.6454 29.6718 35.9737Z" fill="#101619"/>
<path d="M55.8643 35.8424C56.8489 34.5295 57.6367 33.2822 58.5557 32.2319C64.3982 25.2078 71.7505 20.4157 80.4813 17.8555C81.8599 17.4616 83.2384 17.3303 84.617 17.0021C85.4704 16.8052 85.733 17.1334 85.733 17.9212C85.7986 20.8096 85.4704 23.698 84.5513 26.4551C83.6323 29.4091 82.385 32.2975 81.2691 35.1859C81.0721 35.7111 80.7439 35.9737 80.1531 35.908C72.3413 35.908 64.4638 35.908 56.652 35.908C56.5207 35.9737 56.3238 35.908 55.8643 35.8424Z" fill="#101619"/>
<path d="M6.36768 39.3213C30.7878 39.3213 54.8797 39.3213 79.2998 39.3213C78.5121 40.4373 77.8556 41.4219 77.1335 42.2753C76.9366 42.4723 76.4771 42.4723 76.1489 42.4723C65.4486 42.4723 54.6828 42.4723 43.9826 42.4723C32.4946 42.4723 20.941 42.4723 9.45301 42.4723C8.79656 42.4723 8.33704 42.2753 8.00881 41.7502C7.54929 41.0281 7.02413 40.306 6.36768 39.3213Z" fill="#101619"/>
<path d="M73.9826 46.4774C72.9979 47.2652 72.0132 48.1186 71.0285 48.9063C70.766 49.1033 70.3721 49.1033 70.0439 49.1033C59.1467 49.1033 48.2496 49.1033 37.3524 49.1033C30.197 49.1033 22.976 49.1033 15.8207 49.1033C14.9016 49.1033 14.2452 48.9063 13.5887 48.2499C12.9323 47.6591 12.2758 47.0682 11.5537 46.4774C11.6194 46.4118 11.685 46.2805 11.7506 46.2148C32.429 46.2148 53.173 46.2148 73.8513 46.2148C73.9169 46.3461 73.9826 46.4118 73.9826 46.4774Z" fill="#101619"/>
<path d="M65.9736 52.8446C64.0699 53.9605 62.2318 55.1422 60.2624 56.1268C57.1115 57.768 53.8292 58.8183 50.35 59.3435C50.2843 59.3435 50.2187 59.3435 50.1531 59.3435C48.7745 59.5404 48.7089 59.5404 48.7745 58.1619C48.8401 56.5207 48.9714 54.9452 49.1027 53.3041C49.1684 52.7789 49.2997 52.4507 49.9561 52.4507C55.1421 52.4507 60.3937 52.4507 65.5797 52.4507C65.6454 52.4507 65.7767 52.5163 65.8423 52.5163C65.908 52.6476 65.908 52.7789 65.9736 52.8446Z" fill="#101619"/>
<path d="M36.5646 52.582C36.5646 54.8796 36.5646 57.1116 36.5646 59.5405C30.2627 58.884 24.7484 56.3238 19.4312 52.582C25.208 52.582 30.7878 52.582 36.5646 52.582Z" fill="#101619"/>
<path d="M42.8664 60C40.6344 57.8337 39.1246 55.2735 37.6147 52.582C41.1596 52.582 44.5075 52.582 48.0524 52.582C46.6082 55.2735 44.9014 57.7024 42.8664 60Z" fill="#101619"/>
<path d="M203.829 24.4858H186.564V30.1314H203.829V24.4858Z" fill="white"/>
<path d="M83.3041 52.7129C83.4353 52.7786 83.501 52.9099 83.501 53.0412V55.9952C83.501 56.4548 83.304 56.6517 82.8445 56.6517H81.269V49.4307H82.9102C83.3697 49.4307 83.5666 49.6276 83.5666 50.0871V52.3847C83.5666 52.516 83.501 52.6473 83.3041 52.7129ZM81.9255 50.0871V52.3847H82.8445V50.0871H81.9255ZM81.9255 53.1068V56.0609H82.8445V53.1068H81.9255Z" fill="white"/>
<path d="M84.814 50.0871C84.814 49.6276 85.0765 49.4307 85.5361 49.4307H86.4551C86.9146 49.4307 87.1115 49.6276 87.1115 50.0871V56.0609C87.1115 56.5204 86.849 56.7173 86.4551 56.7173H85.5361C85.0765 56.7173 84.814 56.5204 84.814 56.0609V50.0871ZM85.4704 56.0609H86.3895V50.0871H85.4704V56.0609Z" fill="white"/>
<path d="M88.3589 50.0871C88.3589 49.6276 88.6215 49.4307 89.081 49.4307H90C90.4595 49.4307 90.6565 49.6276 90.6565 50.0871V56.0609C90.6565 56.5204 90.3939 56.7173 90 56.7173H89.081C88.6215 56.7173 88.3589 56.5204 88.3589 56.0609V50.0871ZM89.0153 56.0609H89.9344V50.0871H89.0153V56.0609Z" fill="white"/>
<path d="M92.5603 56.0606H93.4793V53.1066H92.5603C92.1007 53.1066 91.9038 52.9097 91.9038 52.4501V50.1525C91.9038 49.693 92.1007 49.4961 92.5603 49.4961H93.4793C93.9388 49.4961 94.1357 49.693 94.1357 50.1525V51.5311H93.4793V50.1525H92.5603V52.4501H93.4793C93.9388 52.4501 94.1357 52.6471 94.1357 53.1066V56.0606C94.1357 56.5202 93.8732 56.7171 93.4793 56.7171H92.5603C92.1007 56.7171 91.9038 56.5202 91.9038 56.0606V54.6821H92.5603V56.0606Z" fill="white"/>
<path d="M97.0237 50.0871V56.7173H96.3673V50.0871H95.4482V49.4307H97.9427V50.0871H97.0237Z" fill="white"/>
</g>
<defs>
<clipPath id="clip0">
<rect width="230.284" height="60" fill="white"/>
</clipPath>
</defs>
</svg>
