<svg width="154" height="40" viewBox="0 0 154 40" fill="none" xmlns="http://www.w3.org/2000/svg">
<path d="M83.2823 20.0875L78.9497 0.175049H82.6696L85.1641 11.5536L87.6587 0.175049H91.3786L87.046 20.0875V40H83.3261V20.0875H83.2823Z" fill="#101619"/>
<path d="M103.764 16.3676V20.0875L98.7746 20.1313V36.2801H106.214L106.258 40H95.0547V0.218811H106.258V3.93872H98.8184V16.3676H103.764Z" fill="#101619"/>
<path d="M118.687 16.3676V20.0875L113.698 20.1313V36.2801H121.138L121.182 40H109.978V0.218811H121.182V3.93872H113.742V16.3676H118.687Z" fill="#101619"/>
<path d="M132.823 3.93872H124.945V0.218811H137.374L129.497 36.2801H137.374V40H124.945L132.823 3.93872Z" fill="#101619"/>
<path d="M145.427 20.0875L141.094 0.175049H144.814L147.309 11.5536L149.803 0.175049H153.523L149.191 20.0875V40H145.471V20.0875H145.427Z" fill="#101619"/>
<path d="M68.2715 0.262573H28.6216V39.9125H68.2715V0.262573Z" fill="#101619"/>
<path d="M28.6214 0C29.4092 0.962801 30.1969 1.88184 30.8534 2.84464C33.2604 6.47702 34.7046 10.4595 35.5361 14.7484C36.0612 17.6368 36.1488 20.5252 35.8424 23.4136C35.7987 23.8074 35.7111 23.9825 35.2735 23.9825C30.7658 23.9825 26.3019 23.9825 21.7943 23.9825C21.2691 23.9825 21.2253 23.6761 21.2253 23.326C21.2253 21.3567 21.0941 19.3435 21.2253 17.3742C21.5755 13.1729 22.7571 9.19037 24.6827 5.4267C25.5579 3.67615 26.6083 2.05689 27.965 0.656455C28.14 0.437637 28.3151 0.262582 28.6214 0Z" fill="#f6f6f6"/>
<path d="M19.7812 23.9825C18.9497 23.9825 18.2057 23.9825 17.4617 23.9825C12.9103 23.9825 8.3151 23.9825 3.76368 23.9825C3.28228 23.9825 3.01969 23.8512 2.80088 23.4136C1.48796 20.5689 0.437637 17.6368 0.0875273 14.5295C0 13.6543 0 12.8228 0 11.9475C0 11.2473 0.0437637 11.2035 0.743982 11.291C3.28228 11.6411 5.64551 12.4289 7.96499 13.523C12.6039 15.7549 16.4551 18.9059 19.3873 23.151C19.4748 23.2823 19.6061 23.4573 19.6937 23.5886C19.6937 23.6761 19.7374 23.7637 19.7812 23.9825Z" fill="#f6f6f6"/>
<path d="M37.2427 23.895C37.8991 23.0197 38.4243 22.1882 39.037 21.488C42.932 16.8053 47.8335 13.6105 53.6541 11.9037C54.5731 11.6411 55.4921 11.5536 56.4112 11.3348C56.9801 11.2035 57.1552 11.4223 57.1552 11.9475C57.1989 13.8731 56.9801 15.7987 56.3674 17.6368C55.7547 19.6061 54.9232 21.5317 54.1792 23.4573C54.0479 23.8074 53.8291 23.9825 53.4352 23.9387C48.2274 23.9387 42.9757 23.9387 37.7678 23.9387C37.6803 23.9825 37.549 23.9387 37.2427 23.895Z" fill="#f6f6f6"/>
<path d="M4.24512 26.2144C20.5252 26.2144 36.5865 26.2144 52.8666 26.2144C52.3414 26.9584 51.9038 27.6149 51.4224 28.1838C51.2911 28.3151 50.9847 28.3151 50.7659 28.3151C43.6324 28.3151 36.4552 28.3151 29.3217 28.3151C21.6631 28.3151 13.9607 28.3151 6.30201 28.3151C5.86437 28.3151 5.55803 28.1838 5.33921 27.8337C5.03286 27.3523 4.68275 26.8709 4.24512 26.2144Z" fill="#f6f6f6"/>
<path d="M49.3219 30.9847C48.6654 31.5099 48.009 32.0788 47.3525 32.6039C47.1775 32.7352 46.9149 32.7352 46.6961 32.7352C39.4313 32.7352 32.1665 32.7352 24.9018 32.7352C20.1315 32.7352 15.3175 32.7352 10.5473 32.7352C9.93458 32.7352 9.49695 32.6039 9.05931 32.1663C8.62167 31.7724 8.18404 31.3786 7.70264 30.9847C7.7464 30.9409 7.79016 30.8534 7.83393 30.8096C21.6195 30.8096 35.4488 30.8096 49.2344 30.8096C49.2781 30.8972 49.3219 30.9409 49.3219 30.9847Z" fill="#f6f6f6"/>
<path d="M43.9826 35.2297C42.7134 35.9737 41.4881 36.7615 40.1751 37.4179C38.0745 38.512 35.8863 39.2122 33.5668 39.5624C33.5231 39.5624 33.4793 39.5624 33.4355 39.5624C32.5165 39.6936 32.4727 39.6936 32.5165 38.7746C32.5603 37.6805 32.6478 36.6302 32.7353 35.5361C32.7791 35.186 32.8666 34.9672 33.3042 34.9672C36.7616 34.9672 40.2627 34.9672 43.72 34.9672C43.7638 34.9672 43.8513 35.0109 43.8951 35.0109C43.9388 35.0985 43.9388 35.186 43.9826 35.2297Z" fill="#f6f6f6"/>
<path d="M24.3764 35.0547C24.3764 36.5864 24.3764 38.0744 24.3764 39.6937C20.1751 39.256 16.499 37.5492 12.9541 35.0547C16.8053 35.0547 20.5252 35.0547 24.3764 35.0547Z" fill="#f6f6f6"/>
<path d="M28.5778 40C27.0898 38.5558 26.0832 36.849 25.0767 35.0547C27.4399 35.0547 29.6718 35.0547 32.0351 35.0547C31.0723 36.849 29.9344 38.4683 28.5778 40Z" fill="#f6f6f6"/>
<path d="M135.886 16.3239H124.376V20.0875H135.886V16.3239Z" fill="#101619"/>
<path d="M55.5364 35.1422C55.6239 35.186 55.6676 35.2735 55.6676 35.3611V37.3304C55.6676 37.6368 55.5364 37.7681 55.23 37.7681H54.1797V32.9541H55.2738C55.5801 32.9541 55.7114 33.0853 55.7114 33.3917V34.9234C55.7114 35.0109 55.6676 35.0985 55.5364 35.1422ZM54.6173 33.3917V34.9234H55.23V33.3917H54.6173ZM54.6173 35.4048V37.3742H55.23V35.4048H54.6173Z" fill="#000"/>
<path d="M56.543 33.3917C56.543 33.0853 56.718 32.9541 57.0244 32.9541H57.6371C57.9434 32.9541 58.0747 33.0853 58.0747 33.3917V37.3742C58.0747 37.6805 57.8997 37.8118 57.6371 37.8118H57.0244C56.718 37.8118 56.543 37.6805 56.543 37.3742V33.3917ZM56.9806 37.3742H57.5933V33.3917H56.9806V37.3742Z" fill="#000"/>
<path d="M58.9062 33.3917C58.9062 33.0853 59.0813 32.9541 59.3876 32.9541H60.0003C60.3067 32.9541 60.438 33.0853 60.438 33.3917V37.3742C60.438 37.6805 60.2629 37.8118 60.0003 37.8118H59.3876C59.0813 37.8118 58.9062 37.6805 58.9062 37.3742V33.3917ZM59.3439 37.3742H59.9566V33.3917H59.3439V37.3742Z" fill="#000"/>
<path d="M61.7072 37.3742H62.3199V35.4048H61.7072C61.4008 35.4048 61.2695 35.2735 61.2695 34.9672V33.4355C61.2695 33.1291 61.4008 32.9978 61.7072 32.9978H62.3199C62.6262 32.9978 62.7575 33.1291 62.7575 33.4355V34.3545H62.3199V33.4355H61.7072V34.9672H62.3199C62.6262 34.9672 62.7575 35.0985 62.7575 35.4048V37.3742C62.7575 37.6805 62.5824 37.8118 62.3199 37.8118H61.7072C61.4008 37.8118 61.2695 37.6805 61.2695 37.3742V36.4552H61.7072V37.3742Z" fill="#000"/>
<path d="M64.6831 33.3917V37.8118H64.2455V33.3917H63.6328V32.9541H65.2958V33.3917H64.6831Z" fill="#000"/>
</svg>
