<svg width="27" height="9" viewBox="0 0 27 9" fill="none" xmlns="http://www.w3.org/2000/svg">
<path d="M9.95898 8.86075L11.298 0.953796H13.4659L12.1269 8.86075H9.95898Z" fill="#293688"/>
<path d="M19.8445 1.15648C19.4149 0.996233 18.7418 0.824615 17.9012 0.824615C15.7586 0.824615 14.2494 1.8973 14.2364 3.4341C14.2246 4.57 15.3138 5.20359 16.1366 5.58213C16.9805 5.96893 17.2643 6.21713 17.2601 6.5628C17.2549 7.09279 16.5859 7.33508 15.9626 7.33508C15.095 7.33478 14.6338 7.21515 13.9217 6.92006L13.6424 6.79408L13.3379 8.56416C13.8444 8.78496 14.7811 8.97644 15.7534 8.98612C18.0321 8.9856 19.5121 7.92621 19.5287 6.28462C19.5369 5.38525 18.9592 4.70078 17.7083 4.1363C16.9504 3.77099 16.4862 3.527 16.4912 3.15622C16.4912 2.82768 16.8843 2.47625 17.7329 2.47625C18.4419 2.46517 18.9556 2.61884 19.3559 2.77909L19.5499 2.87029L19.8445 1.15648Z" fill="#293688"/>
<path d="M23.541 0.953796C23.0216 0.953796 22.6463 1.11242 22.418 1.6272L19.2051 8.86105H21.5004L21.9467 7.64939H24.6891L24.9439 8.86105H26.9844L25.1992 0.954018H23.5411L23.541 0.953796ZM22.5557 6.06724C22.7348 5.61191 23.4192 3.85726 23.4192 3.85726C23.4068 3.87801 23.5973 3.39971 23.7068 3.10293L23.8535 3.7843C23.8535 3.7843 24.2682 5.6718 24.3553 6.06747H22.5557V6.06724Z" fill="#293688"/>
<path d="M6.0051 6.37392L5.81414 5.28994C5.41847 4.02637 4.19049 2.65919 2.81445 1.9742L4.72986 8.86075H7.02573L10.4689 0.953796H8.17351L6.0051 6.37392Z" fill="#293688"/>
<path d="M0.457031 0.950996V1.07868C3.17736 1.73295 5.06596 3.38702 5.81365 5.28722L5.02756 1.6258C4.89634 1.12542 4.49868 0.968423 4.02814 0.95107L0.457031 0.950996Z" fill="#F42E2E"/>
</svg>
