<svg width="24" height="7" viewBox="0 0 24 7" fill="none" xmlns="http://www.w3.org/2000/svg">
<path fill-rule="evenodd" clip-rule="evenodd" d="M6.2876 1.25663e-07V0.00288434C6.28471 0.00288434 5.37619 1.10024e-07 5.13391 0.86815C4.91183 1.66419 4.28595 3.86197 4.26864 3.92254H4.09559C4.09559 3.92254 3.4553 1.67573 3.23033 0.865266C2.98805 -0.00288412 2.07664 1.25663e-07 2.07664 1.25663e-07H0V6.60486H2.07664V2.68232H2.16316H2.24969L3.46106 6.60486H4.90317L6.11455 2.68521H6.2876V6.60486H8.36424V1.25663e-07H6.2876Z" fill="#4DB45E"/>
<path fill-rule="evenodd" clip-rule="evenodd" d="M13.8726 0.000198364C13.8726 0.000198364 13.264 0.0549985 12.9785 0.692411L11.5075 3.92274H11.3345V0.000198364H9.25781V6.60506H11.2191C11.2191 6.60506 11.8565 6.54738 12.142 5.91285L13.5841 2.68252H13.7572V6.60506H15.8338V0.000198364H13.8726Z" fill="#4DB45E"/>
<path fill-rule="evenodd" clip-rule="evenodd" d="M16.7578 3.00047V6.60575H18.8345V4.50027H21.0841C22.0648 4.50027 22.8954 3.87439 23.204 3.00047H16.7578Z" fill="#4DB45E"/>
<path fill-rule="evenodd" clip-rule="evenodd" d="M21.0844 0.000198364H16.4668C16.6975 1.25772 17.6407 2.26719 18.8607 2.596C19.1376 2.67099 19.4289 2.71136 19.7288 2.71136H23.288C23.3197 2.56139 23.3341 2.40852 23.3341 2.24989C23.3341 1.00679 22.3275 0.000198364 21.0844 0.000198364Z" fill="url(#paint0_linear)"/>
<defs>
<linearGradient id="paint0_linear" x1="16.4674" y1="1.35578" x2="23.3341" y2="1.35578" gradientUnits="userSpaceOnUse">
<stop offset="0.3" stop-color="#00B4E6"/>
<stop offset="1" stop-color="#088CCB"/>
</linearGradient>
</defs>
</svg>
