<svg width="27" height="17" viewBox="0 0 27 17" fill="none" xmlns="http://www.w3.org/2000/svg">
<path d="M7.99135 0C3.5754 0.0279149 0 3.62842 0 8.0601C0 12.5092 3.60302 16.1197 8.04297 16.1197C10.1257 16.1197 12.0251 15.3241 13.4543 14.0196L13.454 14.0193H13.4551C13.7482 13.7522 14.0213 13.4631 14.2719 13.1561H12.6245C12.4043 12.89 12.2042 12.612 12.0246 12.3255H14.8661C15.0396 12.0486 15.1955 11.761 15.335 11.4631H11.556C11.427 11.1862 11.3151 10.904 11.2197 10.6164H15.6714C15.9402 9.81284 16.0853 8.95294 16.0853 8.0601C16.0853 7.46709 16.0209 6.89011 15.9001 6.33359H10.9835C11.0449 6.04705 11.1214 5.76436 11.2126 5.4872H15.6664C15.5669 5.19151 15.4511 4.90387 15.3196 4.6242H11.5555C11.6912 4.33324 11.8451 4.05113 12.0167 3.77752H14.8565C14.6672 3.47548 14.4583 3.18703 14.2326 2.91512H12.6492C12.8943 2.62578 13.1634 2.35364 13.4555 2.10137C12.0269 0.796314 10.1272 0.000221425 8.04341 0.000221425C8.02532 -1.21701e-07 8.00819 0 7.99135 0Z" fill="#931B1D"/>
<path d="M26.8741 8.06255C26.8749 12.5133 23.2761 16.1224 18.8331 16.1237C14.392 16.1251 10.7904 12.5174 10.7891 8.06587V8.06255C10.7877 3.61045 14.3876 0.00110827 18.8295 5.48478e-07C23.2712 -0.00162412 26.8731 3.60632 26.8742 8.05812C26.8741 8.05812 26.8741 8.06011 26.8741 8.06255Z" fill="#F16622"/>
<path d="M26.8742 8.15106C26.875 12.6021 23.2762 16.2118 18.8331 16.2126C14.392 16.2142 10.7904 12.606 10.7891 8.1552V8.15106C10.7877 3.69974 14.3877 0.0900747 18.8296 0.0889669C23.2712 0.0873422 26.8732 3.69531 26.8743 8.14685C26.8742 8.14693 26.8742 8.14944 26.8742 8.15106Z" fill="#F7981D"/>
<path d="M7.99135 0.0905508C3.5754 0.118983 0 3.71868 0 8.15065C0 12.6001 3.60302 16.2108 8.04297 16.2108C10.1257 16.2108 12.0251 15.4147 13.4543 14.1104L13.454 14.1096H13.4551C13.7482 13.8426 14.0213 13.5545 14.2719 13.2464H12.6245C12.4043 12.9808 12.2042 12.7034 12.0246 12.4168H14.8661C15.0396 12.1397 15.1955 11.8512 15.335 11.5536H11.556C11.427 11.2765 11.3151 10.9944 11.2197 10.7072H15.6714C15.9402 9.90309 16.0853 9.04349 16.0853 8.15065C16.0853 7.55794 16.0209 6.98067 15.9001 6.42443H10.9835C11.0449 6.1382 11.1214 5.85491 11.2126 5.57805H15.6664C15.5669 5.28214 15.4511 4.99442 15.3196 4.71453H11.5555C11.6912 4.42468 11.8451 4.14147 12.0167 3.86815H14.8565C14.6672 3.5664 14.4583 3.27817 14.2326 3.00515H12.6492C12.8943 2.7164 13.1634 2.44419 13.4555 2.19141C12.0269 0.886569 10.1272 0.090477 8.04341 0.090477C8.02532 0.0905508 8.00819 0.0905508 7.99135 0.0905508Z" fill="#CB2026"/>
<path d="M10.9334 10.2038L11.0409 9.47456C10.9824 9.47456 10.8961 9.49945 10.8201 9.49945C10.5222 9.49945 10.4891 9.34082 10.5084 9.2234L10.7491 7.73483H11.202L11.3114 6.92766H10.8845L10.9716 6.42637H10.115C10.0965 6.44513 9.60938 9.24851 9.60938 9.58917C9.60938 10.0946 9.89207 10.3198 10.2916 10.3164C10.6038 10.3136 10.8477 10.2271 10.9334 10.2038Z" fill="white"/>
<path d="M11.2051 8.81326C11.2051 10.026 12.0034 10.3145 12.684 10.3145C13.3124 10.3145 13.5885 10.1733 13.5885 10.1733L13.7396 9.34547C13.7396 9.34547 13.2619 9.55771 12.8302 9.55771C11.9109 9.55771 12.072 8.87027 12.072 8.87027H13.8126C13.8126 8.87027 13.9245 8.31377 13.9245 8.08721C13.9245 7.52213 13.6432 6.833 12.7034 6.833C11.842 6.83322 11.2051 7.76243 11.2051 8.81326ZM12.707 7.60108C13.19 7.60108 13.1008 8.1454 13.1008 8.18934H12.1502C12.1499 8.13329 12.2397 7.60108 12.707 7.60108Z" fill="white"/>
<path d="M18.1281 10.2035L18.2815 9.26702C18.2815 9.26702 17.8612 9.47925 17.573 9.47925C16.9656 9.47925 16.7221 9.01336 16.7221 8.51489C16.7221 7.50135 17.2447 6.94374 17.827 6.94374C18.2631 6.94374 18.6134 7.18965 18.6134 7.18965L18.753 6.28112C18.753 6.28112 18.2337 6.06999 17.7888 6.06999C16.8001 6.06999 15.8379 6.92853 15.8379 8.54384C15.8379 9.61321 16.3577 10.3208 17.3796 10.3208C17.6682 10.321 18.1281 10.2035 18.1281 10.2035Z" fill="white"/>
<path d="M6.22389 6.84507C5.63672 6.84507 5.18653 7.03383 5.18653 7.03383L5.06247 7.77331C5.06247 7.77331 5.43437 7.62243 5.99563 7.62243C6.31451 7.62243 6.54743 7.6581 6.54743 7.91813C6.54743 8.07566 6.519 8.13393 6.519 8.13393C6.519 8.13393 6.26783 8.11266 6.15123 8.11266C5.41096 8.11266 4.63281 8.42933 4.63281 9.3849C4.63281 10.1371 5.14289 10.31 5.45933 10.31C6.06364 10.31 6.32337 9.91737 6.33777 9.91567L6.30956 10.2439H7.06341L7.39994 7.87988C7.39994 6.87734 6.52697 6.84507 6.22389 6.84507ZM6.40763 8.7689C6.42395 8.91343 6.31702 9.59043 5.8014 9.59043C5.53555 9.59043 5.4662 9.38652 5.4662 9.266C5.4662 9.03137 5.59359 8.74926 6.22138 8.74926C6.36701 8.74926 6.38274 8.76528 6.40763 8.7689Z" fill="white"/>
<path d="M8.20101 10.293C8.39361 10.293 9.49617 10.3424 9.49617 9.20229C9.49617 8.1362 8.47573 8.34653 8.47573 7.9182C8.47573 7.70574 8.64211 7.63772 8.946 7.63772C9.06674 7.63772 9.53125 7.67672 9.53125 7.67672L9.63959 6.91851C9.63959 6.91851 9.33895 6.8516 8.84985 6.8516C8.21571 6.8516 7.57322 7.10416 7.57322 7.97152C7.57322 8.95497 8.64536 8.85549 8.64536 9.26942C8.64536 9.54576 8.34553 9.56843 8.11453 9.56843C7.71553 9.56843 7.35603 9.43107 7.35433 9.43742L7.24023 10.1871C7.26017 10.1941 7.48231 10.293 8.20101 10.293Z" fill="white"/>
<path d="M25.2213 6.16432L25.037 7.3128C25.037 7.3128 24.7145 6.8671 24.2103 6.8671C23.4253 6.8671 22.7715 7.81493 22.7715 8.90455C22.7715 9.60784 23.1199 10.2962 23.8334 10.2962C24.3465 10.2962 24.6303 9.93782 24.6303 9.93782L24.593 10.2437H25.4259L26.0805 6.16248L25.2213 6.16432ZM24.824 8.40464C24.824 8.85758 24.5996 9.46243 24.1356 9.46243C23.8272 9.46243 23.6833 9.20321 23.6833 8.79643C23.6833 8.13153 23.9812 7.69159 24.3569 7.69159C24.6656 7.69167 24.824 7.90444 24.824 8.40464Z" fill="white"/>
<path d="M1.58684 10.2476L2.10881 7.16643L2.1848 10.2476H2.775L3.87558 7.16643L3.38788 10.2476H4.2644L4.94004 6.16197H3.58417L2.74 8.66834L2.69606 6.16197H1.44675L0.761719 10.2476H1.58684Z" fill="white"/>
<path d="M14.7817 10.2547C15.0309 8.83467 15.0771 7.681 15.6723 7.89132C15.7765 7.34196 15.8768 7.1295 15.9901 6.89658C15.9901 6.89658 15.937 6.88528 15.8248 6.88528C15.4421 6.88528 15.1577 7.41027 15.1577 7.41027L15.2334 6.92833H14.4359L13.9023 10.2547H14.7817Z" fill="white"/>
<path d="M20.1047 6.84507C19.5176 6.84507 19.0677 7.03383 19.0677 7.03383L18.9439 7.77331C18.9439 7.77331 19.315 7.62243 19.8768 7.62243C20.1954 7.62243 20.4289 7.6581 20.4289 7.91813C20.4289 8.07566 20.4001 8.13393 20.4001 8.13393C20.4001 8.13393 20.149 8.11266 20.0315 8.11266C19.2909 8.11266 18.5137 8.42933 18.5137 9.3849C18.5137 10.1371 19.024 10.31 19.3402 10.31C19.9445 10.31 20.2045 9.91737 20.2183 9.91567L20.1904 10.2439H20.9448L21.2811 7.87988C21.2814 6.87734 20.4087 6.84507 20.1047 6.84507ZM20.2888 8.7689C20.3051 8.91343 20.1987 9.59043 19.6823 9.59043C19.4167 9.59043 19.3479 9.38652 19.3479 9.266C19.3479 9.03137 19.4753 8.74926 20.1019 8.74926C20.2485 8.74926 20.2637 8.76528 20.2888 8.7689Z" fill="white"/>
<path d="M21.969 10.2547C22.2186 8.83467 22.2647 7.681 22.8599 7.89132C22.9641 7.34196 23.0643 7.1295 23.1782 6.89658C23.1782 6.89658 23.1243 6.88528 23.0127 6.88528C22.6289 6.88528 22.3454 7.41027 22.3454 7.41027L22.4217 6.92833H21.6237L21.0898 10.2545H21.9691L21.969 10.2547Z" fill="white"/>
</svg>
