<svg width="9" height="20" viewBox="0 0 9 20" fill="none" xmlns="http://www.w3.org/2000/svg">
<path d="M5.39627 12.3265L2.27801 19.9898H0L3.42635 11.7959C2.62344 11.3469 1.97925 10.6939 1.48444 9.82653C0.989627 8.95918 0.746888 7.78571 0.746888 6.28571C0.746888 5.2449 0.886929 4.32653 1.16701 3.53061C1.4471 2.73469 1.82988 2.08163 2.31535 1.56122C2.80083 1.04082 3.37033 0.642857 4.01452 0.387755C4.65871 0.122449 5.34959 0 6.05913 0H9V20H7.03008V12.3367H5.39627V12.3265ZM7.03008 1.78571H5.98444C5.59232 1.78571 5.20954 1.86735 4.8361 2.02041C4.46266 2.18367 4.12656 2.42857 3.83714 2.77551C3.54772 3.12245 3.31432 3.58163 3.13693 4.15306C2.95954 4.72449 2.86618 5.42857 2.86618 6.27551C2.86618 7.08163 2.95021 7.7551 3.10892 8.29592C3.26764 8.83674 3.4917 9.27551 3.77178 9.61224C4.05187 9.94898 4.38797 10.1837 4.77075 10.3265C5.15353 10.4694 5.55498 10.5408 5.98444 10.5408H7.03008V1.78571Z" fill="#EE2E24"/>
</svg>
