<svg width="18" height="14" viewBox="0 0 18 14" fill="none" xmlns="http://www.w3.org/2000/svg">
<path d="M11.4336 9.93615H6.56641V1.18921H11.4336V9.93615Z" fill="#6C6BBD"/>
<path d="M6.87532 5.56286C6.87532 3.7885 7.70609 2.20796 8.99981 1.18939C8.05375 0.444563 6.85976 0 5.56215 0C2.49018 0 0 2.49054 0 5.56286C0 8.63518 2.49018 11.1257 5.56215 11.1257C6.85976 11.1257 8.05375 10.6812 8.99981 9.93633C7.70609 8.91776 6.87532 7.33722 6.87532 5.56286Z" fill="#D32011"/>
<path d="M18.0002 5.56286C18.0002 8.63518 15.51 11.1257 12.438 11.1257C11.1404 11.1257 9.94642 10.6812 9 9.93633C10.2941 8.91776 11.1248 7.33722 11.1248 5.56286C11.1248 3.7885 10.2941 2.20796 9 1.18939C9.94642 0.444563 11.1404 0 12.438 0C15.51 0 18.0002 2.49054 18.0002 5.56286Z" fill="#0099DF"/>
<path d="M13.0816 12.4078C13.1464 12.4078 13.2394 12.4202 13.3105 12.4481L13.2114 12.7508C13.1435 12.7229 13.0756 12.7137 13.0106 12.7137C12.8005 12.7137 12.6954 12.8495 12.6954 13.0935V13.9218H12.374V12.4449H12.6923V12.6242C12.7757 12.4944 12.8963 12.4078 13.0816 12.4078ZM11.894 12.7385H11.3688V13.4058C11.3688 13.554 11.4212 13.653 11.5821 13.653C11.6656 13.653 11.7706 13.6251 11.8661 13.5696L11.9588 13.8444C11.8569 13.9155 11.6963 13.959 11.5573 13.959C11.1771 13.959 11.0445 13.7549 11.0445 13.4118V12.7385H10.7446V12.4449H11.0445V11.9968H11.3688V12.4449H11.894V12.7385ZM7.78121 13.0536C7.81552 12.8403 7.94496 12.695 8.17379 12.695C8.38068 12.695 8.51366 12.8248 8.54761 13.0536H7.78121ZM8.88148 13.1834C8.87829 12.7229 8.59394 12.4078 8.1798 12.4078C7.74726 12.4078 7.44452 12.7229 7.44452 13.1834C7.44452 13.6527 7.75964 13.9586 8.20173 13.9586C8.42418 13.9586 8.6279 13.9031 8.80721 13.7517L8.64947 13.5137C8.52604 13.6127 8.3683 13.6683 8.22012 13.6683C8.01322 13.6683 7.82471 13.5724 7.77838 13.3068H8.87511C8.87829 13.2665 8.88148 13.2265 8.88148 13.1834ZM10.2933 12.8219C10.2038 12.766 10.0217 12.695 9.8332 12.695C9.65707 12.695 9.55203 12.76 9.55203 12.8683C9.55203 12.9669 9.66308 12.9949 9.80208 13.0133L9.95345 13.0348C10.2749 13.0815 10.4695 13.2173 10.4695 13.4769C10.4695 13.7581 10.2222 13.959 9.79606 13.959C9.55486 13.959 9.33241 13.8971 9.15628 13.7673L9.30765 13.5169C9.41587 13.6003 9.57679 13.6714 9.79925 13.6714C10.0185 13.6714 10.1359 13.6067 10.1359 13.4921C10.1359 13.409 10.0525 13.3623 9.87635 13.3379L9.72498 13.3164C9.3943 13.2697 9.21499 13.1215 9.21499 12.8806C9.21499 12.5871 9.45619 12.4078 9.83002 12.4078C10.0649 12.4078 10.2781 12.4605 10.4323 12.5623L10.2933 12.8219ZM14.2562 12.713C14.19 12.713 14.1289 12.7247 14.0719 12.7477C14.0153 12.771 13.9662 12.8035 13.9248 12.8453C13.8834 12.887 13.8509 12.9372 13.8272 12.9956C13.8035 13.0539 13.7918 13.1183 13.7918 13.1883C13.7918 13.2587 13.8035 13.3227 13.8272 13.3811C13.8509 13.4394 13.8834 13.4897 13.9248 13.5314C13.9662 13.5731 14.0153 13.6057 14.0719 13.629C14.1289 13.6523 14.19 13.6637 14.2562 13.6637C14.3223 13.6637 14.3839 13.6523 14.4404 13.629C14.4974 13.6057 14.5469 13.5731 14.5883 13.5314C14.6304 13.4897 14.6629 13.4394 14.687 13.3811C14.7106 13.3227 14.7223 13.2587 14.7223 13.1883C14.7223 13.1183 14.7106 13.0539 14.687 12.9956C14.6629 12.9372 14.6304 12.887 14.5883 12.8453C14.5469 12.8035 14.4974 12.771 14.4404 12.7477C14.3839 12.7247 14.3223 12.713 14.2562 12.713ZM14.2562 12.4078C14.3708 12.4078 14.4769 12.4276 14.5745 12.4675C14.6721 12.5072 14.7566 12.562 14.8277 12.6316C14.8992 12.7013 14.9547 12.7837 14.995 12.8785C15.0353 12.9736 15.0555 13.0769 15.0555 13.1883C15.0555 13.2997 15.0353 13.403 14.995 13.4981C14.9547 13.5929 14.8992 13.6757 14.8277 13.7454C14.7566 13.815 14.6721 13.8695 14.5745 13.9095C14.4769 13.9491 14.3708 13.9689 14.2562 13.9689C14.1416 13.9689 14.0355 13.9491 13.9379 13.9095C13.8403 13.8695 13.7564 13.815 13.6857 13.7454C13.615 13.6757 13.5595 13.5929 13.5191 13.4981C13.4788 13.403 13.4587 13.2997 13.4587 13.1883C13.4587 13.0769 13.4788 12.9736 13.5191 12.8785C13.5595 12.7837 13.615 12.7013 13.6857 12.6316C13.7564 12.562 13.8403 12.5072 13.9379 12.4675C14.0355 12.4276 14.1416 12.4078 14.2562 12.4078ZM5.90394 13.1834C5.90394 12.9238 6.07405 12.7105 6.35204 12.7105C6.61764 12.7105 6.79695 12.9146 6.79695 13.1834C6.79695 13.4522 6.61764 13.6559 6.35204 13.6559C6.07405 13.6559 5.90394 13.443 5.90394 13.1834ZM7.09969 13.1834V12.4449H6.77856V12.6242C6.67635 12.4912 6.52215 12.4078 6.31207 12.4078C5.89793 12.4078 5.57361 12.7321 5.57361 13.1834C5.57361 13.6343 5.89793 13.959 6.31207 13.959C6.52215 13.959 6.67635 13.8755 6.77856 13.7425V13.9218H7.09969V13.1834ZM5.28926 13.9218V12.9949C5.28926 12.6458 5.0668 12.411 4.70854 12.4078C4.52003 12.4046 4.32516 12.4633 4.18935 12.6706C4.08749 12.5068 3.92658 12.4078 3.70093 12.4078C3.54355 12.4078 3.389 12.4541 3.2684 12.6271V12.4449H2.94727V13.9218H3.27158V13.1031C3.27158 12.8467 3.41376 12.7105 3.63303 12.7105C3.84629 12.7105 3.95451 12.8495 3.95451 13.0999V13.9218H4.27883V13.1031C4.27883 12.8467 4.42737 12.7105 4.64028 12.7105C4.85991 12.7105 4.96495 12.8495 4.96495 13.0999V13.9218H5.28926Z" fill="#110F0D"/>
</svg>
