<svg width="20" height="21" viewBox="0 0 20 21" fill="none" xmlns="http://www.w3.org/2000/svg">
<path d="M15.9026 13.2215C16.2503 13.3574 16.384 13.8865 16.4106 14.1173C16.4642 14.5383 16.3441 14.7012 16.2104 14.7012C16.0766 14.7012 15.8893 14.5383 15.6891 14.2126C15.4885 13.8865 15.4083 13.5202 15.5155 13.33C15.5819 13.2076 15.7286 13.1536 15.9026 13.2215ZM13.8715 14.7556C14.0854 14.7556 14.3259 14.8505 14.5398 15.0404C14.9539 15.3935 15.0744 15.8007 14.8605 16.0994C14.74 16.2488 14.5398 16.3437 14.3126 16.3437C14.0854 16.3437 13.8449 16.2623 13.6846 16.1129C13.3103 15.7872 13.2036 15.2438 13.4437 14.9455C13.5375 14.8231 13.6846 14.7556 13.8715 14.7556ZM9.19449 18.6786C4.11584 18.6786 0 14.4974 0 9.33907C0 4.18075 4.11625 0 9.19407 0C14.2723 0 18.3886 4.18117 18.3886 9.33907C18.3886 11.09 17.9076 12.733 17.0926 14.1312C17.0656 14.1717 16.9988 14.1582 16.9855 14.1038C16.6648 11.8098 15.2883 10.547 13.2837 10.1673C13.1097 10.1399 13.0831 10.0314 13.3103 10.0044C13.9251 9.95 14.7936 9.96351 15.248 10.0449C15.2746 9.81415 15.2883 9.56986 15.2883 9.32557C15.2883 5.91819 12.5618 3.14875 9.20736 3.14875C5.8533 3.14875 3.12686 5.91819 3.12686 9.32557C3.12686 12.733 5.8533 15.5024 9.20778 15.5024H9.48815C9.3929 14.9513 9.35254 14.3918 9.36769 13.8325C9.3814 13.4523 9.46157 13.3979 9.6219 13.6966C10.4638 15.1763 11.6667 16.5066 14.0185 17.0361C15.9429 17.4706 17.8673 17.9727 19.9387 20.6468C20.1256 20.8776 19.8452 21.1219 19.6313 20.932C17.52 19.0313 15.5957 18.4069 13.8449 18.4069C11.8802 18.4208 10.5444 18.6786 9.19449 18.6786Z" fill="#FF8C00"/>
</svg>
