<svg width="16" height="16" viewBox="0 0 16 16" fill="none" xmlns="http://www.w3.org/2000/svg">
<path d="M7.96203 0C9.21027 0 10.398 0.29042 11.4638 0.812363C11.6313 0.88903 11.7988 0.980674 11.9658 1.07232L11.235 1.72957L10.1395 0.583378L8.25202 2.26395L7.14003 1.05429L3.66879 4.18748L5.89128 6.64792L5.02378 7.41205L7.21628 9.87249L6.34878 10.6361L9.48502 14.1359L11.3413 12.4241L12.9558 14.2585C12.6358 14.503 12.2858 14.7479 11.9058 14.9617C10.7056 15.6438 9.35308 16.0013 7.97778 16C3.57754 16 5.01703e-05 12.4096 5.01703e-05 7.99314C-0.0154498 3.60664 3.56254 0 7.96203 0ZM6.50003 7.5037L8.40302 5.79189L10.1085 7.70222L8.20502 9.41376L6.50003 7.5037ZM7.85503 10.8047L9.74252 9.0779L11.463 10.988L9.55977 12.6998L7.85503 10.8047ZM5.14603 4.24866L7.04603 2.53686L8.75102 4.44718L6.84778 6.15873L5.14603 4.24866ZM8.63177 3.32891L10.05 2.04792L11.329 3.46955L9.91302 4.76832L8.63177 3.32891ZM11.1568 9.2127L12.575 7.93146L13.854 9.36756L12.438 10.6521L11.1568 9.2127ZM12.405 12.1017L13.821 10.8176L15.099 12.2393L13.6835 13.538L12.405 12.1017ZM12.9838 5.49944L13.9275 4.64342L14.78 5.59134L13.8365 6.44686L12.9838 5.49944ZM11.7658 2.67217L12.7095 1.80141L13.5625 2.76407L12.618 3.61958L11.7658 2.67217ZM14.1863 8.32697L15.13 7.47145L16 8.4209L15.0413 9.27642L14.1863 8.32697ZM9.93627 6.20265L11.3523 4.91886L12.6308 6.33999L11.2153 7.62403L9.93627 6.20265Z" fill="#106DB3"/>
</svg>
