<svg width="31" height="30" viewBox="0 0 31 30" fill="none" xmlns="http://www.w3.org/2000/svg">
<path d="M4.02245 24.1099L4.18663 23.6205L3.88277 23.2032C2.20527 20.8995 1.21875 18.0632 1.21875 15C1.21875 7.27954 7.4969 1 15.215 1H15.2225C22.9405 1 29.2188 7.28133 29.2188 15C29.2188 22.7187 22.9405 29 15.2225 29C12.3739 29 9.73572 28.1535 7.52289 26.6876L7.12301 26.4227L6.66613 26.5687L2.78096 27.8107L4.02245 24.1099Z" stroke="#C6C6C6" stroke-width="2"/>
<path d="M23.9508 21.1821C23.5889 22.204 22.1527 23.0515 21.007 23.299C20.2233 23.4658 19.1995 23.599 15.7533 22.1702C11.3452 20.344 8.50641 15.8646 8.28516 15.574C8.07328 15.2833 6.50391 13.2021 6.50391 11.0496C6.50391 8.89709 7.59703 7.84897 8.03766 7.39897C8.39953 7.02959 8.99766 6.86084 9.57141 6.86084C9.75703 6.86084 9.92391 6.87021 10.0739 6.87771C10.5145 6.89646 10.7358 6.92272 11.0264 7.61834C11.3883 8.49022 12.2695 10.6427 12.3745 10.864C12.4814 11.0852 12.5883 11.3852 12.4383 11.6758C12.2977 11.9758 12.1739 12.109 11.9527 12.364C11.7314 12.619 11.5214 12.814 11.3002 13.0877C11.0977 13.3258 10.8689 13.5808 11.1239 14.0215C11.3789 14.4527 12.2602 15.8908 13.5577 17.0458C15.232 18.5365 16.5895 19.0127 17.0752 19.2152C17.437 19.3652 17.8683 19.3296 18.1327 19.0483C18.4683 18.6865 18.8827 18.0865 19.3045 17.4958C19.6045 17.0721 19.9833 17.0196 20.3808 17.1696C20.7858 17.3102 22.9289 18.3696 23.3695 18.589C23.8102 18.8102 24.1008 18.9152 24.2077 19.1008C24.3127 19.2865 24.3127 20.1583 23.9508 21.1821Z" fill="#C6C6C6"/>
</svg>
