<svg width="31" height="30" viewBox="0 0 31 30" fill="none" xmlns="http://www.w3.org/2000/svg">
<path d="M20.8438 0H9.59375C4.41688 0 0.21875 4.19813 0.21875 9.375V20.625C0.21875 25.8019 4.41688 30 9.59375 30H20.8438C26.0206 30 30.2188 25.8019 30.2188 20.625V9.375C30.2188 4.19813 26.0206 0 20.8438 0ZM27.4062 20.625C27.4062 24.2437 24.4625 27.1875 20.8438 27.1875H9.59375C5.975 27.1875 3.03125 24.2437 3.03125 20.625V9.375C3.03125 5.75625 5.975 2.8125 9.59375 2.8125H20.8438C24.4625 2.8125 27.4062 5.75625 27.4062 9.375V20.625Z" fill="#C6C6C6"/>
<path d="M15.2188 7.5C11.0769 7.5 7.71875 10.8581 7.71875 15C7.71875 19.1419 11.0769 22.5 15.2188 22.5C19.3606 22.5 22.7188 19.1419 22.7188 15C22.7188 10.8581 19.3606 7.5 15.2188 7.5ZM15.2188 19.6875C12.635 19.6875 10.5312 17.5837 10.5312 15C10.5312 12.4144 12.635 10.3125 15.2188 10.3125C17.8025 10.3125 19.9062 12.4144 19.9062 15C19.9062 17.5837 17.8025 19.6875 15.2188 19.6875Z" fill="#C6C6C6"/>
<path d="M23.2811 7.93701C23.8331 7.93701 24.2805 7.48962 24.2805 6.93774C24.2805 6.38586 23.8331 5.93848 23.2811 5.93848C22.7292 5.93848 22.2817 6.38586 22.2817 6.93774C22.2817 7.48962 22.7292 7.93701 23.2811 7.93701Z" fill="#C6C6C6"/>
</svg>
