<svg width="31" height="19" viewBox="0 0 20 19" fill="none" xmlns="http://www.w3.org/2000/svg">
<path fill-rule="evenodd" clip-rule="evenodd" d="M19.4046 8.87908L16.2852 11.8777C16.0999 12.0558 15.9385 12.546 15.9807 12.7984L16.7048 17.0455C16.8051 17.6338 16.6708 18.1621 16.3269 18.5339C16.3136 18.5492 15.9536 19 15.0917 19C14.8313 19 14.5684 18.8994 14.3074 18.7626L10.4652 16.749C10.4027 16.7162 10.2748 16.6765 10.1007 16.6625C9.83151 16.6412 9.59445 16.6912 9.4879 16.7462L5.63621 18.741C5.28565 18.9222 4.93699 18.9619 4.59778 18.9741C3.87083 19.0003 3.57891 18.4598 3.54423 18.4158C3.34121 18.1571 3.12558 17.7038 3.24695 17.0117L3.99283 12.7684C4.03665 12.5163 3.87745 12.0252 3.69334 11.8471L0.588476 8.83253C0.0689488 8.32797 -0.118623 7.70469 0.0739928 7.12233C0.266293 6.54092 0.789918 6.14851 1.50963 6.04666L5.81243 5.43838C6.06747 5.40183 6.4899 5.10003 6.60433 4.8704L8.53743 1.01354C8.88073 0.329652 9.47591 -0.0471287 10.131 0.0047334C10.7019 0.0494098 11.1987 0.420254 11.496 1.02104L13.4096 4.8882C13.5231 5.11783 13.9436 5.42182 14.1986 5.45931L18.4986 6.08947C19.218 6.19507 19.7391 6.58965 19.9286 7.17263C20.1177 7.75499 19.9273 8.37765 19.4046 8.87908Z" fill="#E3E3E3"/>
</svg>
